%TF.GenerationSoftware,KiCad,Pcbnew,7.0.9*%
%TF.CreationDate,2024-03-01T17:25:44-08:00*%
%TF.ProjectId,M13-SDL-Rev1,4d31332d-5344-44c2-9d52-6576312e6b69,2*%
%TF.SameCoordinates,Original*%
%TF.FileFunction,Copper,L1,Top*%
%TF.FilePolarity,Positive*%
%FSLAX46Y46*%
G04 Gerber Fmt 4.6, Leading zero omitted, Abs format (unit mm)*
G04 Created by KiCad (PCBNEW 7.0.9) date 2024-03-01 17:25:44*
%MOMM*%
%LPD*%
G01*
G04 APERTURE LIST*
G04 Aperture macros list*
%AMRoundRect*
0 Rectangle with rounded corners*
0 $1 Rounding radius*
0 $2 $3 $4 $5 $6 $7 $8 $9 X,Y pos of 4 corners*
0 Add a 4 corners polygon primitive as box body*
4,1,4,$2,$3,$4,$5,$6,$7,$8,$9,$2,$3,0*
0 Add four circle primitives for the rounded corners*
1,1,$1+$1,$2,$3*
1,1,$1+$1,$4,$5*
1,1,$1+$1,$6,$7*
1,1,$1+$1,$8,$9*
0 Add four rect primitives between the rounded corners*
20,1,$1+$1,$2,$3,$4,$5,0*
20,1,$1+$1,$4,$5,$6,$7,0*
20,1,$1+$1,$6,$7,$8,$9,0*
20,1,$1+$1,$8,$9,$2,$3,0*%
G04 Aperture macros list end*
%TA.AperFunction,ComponentPad*%
%ADD10RoundRect,0.250000X-0.600000X-0.725000X0.600000X-0.725000X0.600000X0.725000X-0.600000X0.725000X0*%
%TD*%
%TA.AperFunction,ComponentPad*%
%ADD11O,1.700000X1.950000*%
%TD*%
%TA.AperFunction,ComponentPad*%
%ADD12C,1.200000*%
%TD*%
%TA.AperFunction,ComponentPad*%
%ADD13O,4.500000X3.500000*%
%TD*%
%TA.AperFunction,Conductor*%
%ADD14C,0.250000*%
%TD*%
G04 APERTURE END LIST*
D10*
%TO.P,REF\u002A\u002A,1*%
%TO.N,N/C*%
X140000000Y-113750000D03*
D11*
%TO.P,REF\u002A\u002A,2*%
X142500000Y-113750000D03*
%TO.P,REF\u002A\u002A,3*%
X145000000Y-113750000D03*
%TO.P,REF\u002A\u002A,4*%
X147500000Y-113750000D03*
%TO.P,REF\u002A\u002A,5*%
X150000000Y-113750000D03*
%TO.P,REF\u002A\u002A,6*%
X152500000Y-113750000D03*
%TD*%
D12*
%TO.P,REF\u002A\u002A,1*%
%TO.N,N/C*%
X142760000Y-106515000D03*
%TO.P,REF\u002A\u002A,3*%
X145300000Y-106515000D03*
%TO.P,REF\u002A\u002A,5*%
X147840000Y-106515000D03*
%TO.P,REF\u002A\u002A,8*%
X144030000Y-103975000D03*
%TO.P,REF\u002A\u002A,10*%
X146570000Y-103975000D03*
%TO.P,REF\u002A\u002A,12*%
X149110000Y-103975000D03*
D13*
%TO.P,REF\u002A\u002A,13*%
X139210000Y-100765000D03*
%TO.P,REF\u002A\u002A,14*%
X152660000Y-100765000D03*
%TD*%
D14*
%TO.N,*%
X140936916Y-110163083D02*
X142114765Y-108985234D01*
X147500000Y-109657609D02*
X147500000Y-113750000D01*
X145000000Y-110812132D02*
X145000000Y-113750000D01*
X147840000Y-106527500D02*
X147840000Y-106515000D01*
X149110000Y-104892500D02*
X149110000Y-103975000D01*
X144030000Y-108088126D02*
X144030000Y-103975000D01*
X145150000Y-106665000D02*
X145000000Y-106815000D01*
X140000000Y-112425000D02*
X140000000Y-113750000D01*
X145300000Y-106727132D02*
X145300000Y-110087867D01*
X148920000Y-107620000D02*
X147848838Y-106548838D01*
X142500000Y-111781873D02*
X142500000Y-113750000D01*
X146570000Y-107412390D02*
X146570000Y-103975000D01*
X142760000Y-107427500D02*
X142760000Y-106515000D01*
X152500000Y-111453963D02*
X152500000Y-113750000D01*
X150906207Y-107606207D02*
X149758770Y-106458770D01*
X150000000Y-110227350D02*
X150000000Y-113750000D01*
X149109989Y-104892500D02*
G75*
G03*
X149758771Y-106458769I2215011J0D01*
G01*
X147840007Y-106527500D02*
G75*
G03*
X147848838Y-106548838I30193J0D01*
G01*
X143264992Y-109934992D02*
G75*
G03*
X144030000Y-108088126I-1846892J1846892D01*
G01*
X152500010Y-111453963D02*
G75*
G03*
X150906206Y-107606208I-5441610J-37D01*
G01*
X143265008Y-109935008D02*
G75*
G03*
X142500000Y-111781873I1846892J-1846892D01*
G01*
X145299922Y-106727132D02*
G75*
G03*
X145150000Y-106665000I-87822J32D01*
G01*
X142114772Y-108985241D02*
G75*
G03*
X142760000Y-107427500I-1557772J1557741D01*
G01*
X147499996Y-109657609D02*
G75*
G03*
X147035000Y-108535000I-1587596J9D01*
G01*
X145149991Y-110449991D02*
G75*
G03*
X145000000Y-110812132I362109J-362109D01*
G01*
X140936923Y-110163090D02*
G75*
G03*
X140000000Y-112425000I2261877J-2261910D01*
G01*
X145150009Y-110450009D02*
G75*
G03*
X145300000Y-110087867I-362109J362109D01*
G01*
X146570004Y-107412390D02*
G75*
G03*
X147035000Y-108535000I1587596J-10D01*
G01*
X150000049Y-110227350D02*
G75*
G03*
X148919999Y-107620001I-3687349J-50D01*
G01*
%TD*%
M02*
