%TF.GenerationSoftware,KiCad,Pcbnew,7.0.9*%
%TF.CreationDate,2024-03-01T17:25:44-08:00*%
%TF.ProjectId,M13-SDL-Rev1,4d31332d-5344-44c2-9d52-6576312e6b69,2*%
%TF.SameCoordinates,Original*%
%TF.FileFunction,Legend,Bot*%
%TF.FilePolarity,Positive*%
%FSLAX46Y46*%
G04 Gerber Fmt 4.6, Leading zero omitted, Abs format (unit mm)*
G04 Created by KiCad (PCBNEW 7.0.9) date 2024-03-01 17:25:44*
%MOMM*%
%LPD*%
G01*
G04 APERTURE LIST*
%ADD10C,0.150000*%
%ADD11C,0.250000*%
%ADD12C,0.300000*%
G04 APERTURE END LIST*
D10*
X155463220Y-107169819D02*
X155463220Y-106169819D01*
X155463220Y-106169819D02*
X155129887Y-106884104D01*
X155129887Y-106884104D02*
X154796554Y-106169819D01*
X154796554Y-106169819D02*
X154796554Y-107169819D01*
X153796554Y-107169819D02*
X154367982Y-107169819D01*
X154082268Y-107169819D02*
X154082268Y-106169819D01*
X154082268Y-106169819D02*
X154177506Y-106312676D01*
X154177506Y-106312676D02*
X154272744Y-106407914D01*
X154272744Y-106407914D02*
X154367982Y-106455533D01*
X153463220Y-106169819D02*
X152844173Y-106169819D01*
X152844173Y-106169819D02*
X153177506Y-106550771D01*
X153177506Y-106550771D02*
X153034649Y-106550771D01*
X153034649Y-106550771D02*
X152939411Y-106598390D01*
X152939411Y-106598390D02*
X152891792Y-106646009D01*
X152891792Y-106646009D02*
X152844173Y-106741247D01*
X152844173Y-106741247D02*
X152844173Y-106979342D01*
X152844173Y-106979342D02*
X152891792Y-107074580D01*
X152891792Y-107074580D02*
X152939411Y-107122200D01*
X152939411Y-107122200D02*
X153034649Y-107169819D01*
X153034649Y-107169819D02*
X153320363Y-107169819D01*
X153320363Y-107169819D02*
X153415601Y-107122200D01*
X153415601Y-107122200D02*
X153463220Y-107074580D01*
X152415601Y-106788866D02*
X151653697Y-106788866D01*
X151225125Y-107122200D02*
X151082268Y-107169819D01*
X151082268Y-107169819D02*
X150844173Y-107169819D01*
X150844173Y-107169819D02*
X150748935Y-107122200D01*
X150748935Y-107122200D02*
X150701316Y-107074580D01*
X150701316Y-107074580D02*
X150653697Y-106979342D01*
X150653697Y-106979342D02*
X150653697Y-106884104D01*
X150653697Y-106884104D02*
X150701316Y-106788866D01*
X150701316Y-106788866D02*
X150748935Y-106741247D01*
X150748935Y-106741247D02*
X150844173Y-106693628D01*
X150844173Y-106693628D02*
X151034649Y-106646009D01*
X151034649Y-106646009D02*
X151129887Y-106598390D01*
X151129887Y-106598390D02*
X151177506Y-106550771D01*
X151177506Y-106550771D02*
X151225125Y-106455533D01*
X151225125Y-106455533D02*
X151225125Y-106360295D01*
X151225125Y-106360295D02*
X151177506Y-106265057D01*
X151177506Y-106265057D02*
X151129887Y-106217438D01*
X151129887Y-106217438D02*
X151034649Y-106169819D01*
X151034649Y-106169819D02*
X150796554Y-106169819D01*
X150796554Y-106169819D02*
X150653697Y-106217438D01*
X150225125Y-107169819D02*
X150225125Y-106169819D01*
X150225125Y-106169819D02*
X149987030Y-106169819D01*
X149987030Y-106169819D02*
X149844173Y-106217438D01*
X149844173Y-106217438D02*
X149748935Y-106312676D01*
X149748935Y-106312676D02*
X149701316Y-106407914D01*
X149701316Y-106407914D02*
X149653697Y-106598390D01*
X149653697Y-106598390D02*
X149653697Y-106741247D01*
X149653697Y-106741247D02*
X149701316Y-106931723D01*
X149701316Y-106931723D02*
X149748935Y-107026961D01*
X149748935Y-107026961D02*
X149844173Y-107122200D01*
X149844173Y-107122200D02*
X149987030Y-107169819D01*
X149987030Y-107169819D02*
X150225125Y-107169819D01*
X148748935Y-107169819D02*
X149225125Y-107169819D01*
X149225125Y-107169819D02*
X149225125Y-106169819D01*
D11*
X155068860Y-109197952D02*
X155068860Y-110007476D01*
X155068860Y-110007476D02*
X155116479Y-110102714D01*
X155116479Y-110102714D02*
X155164098Y-110150333D01*
X155164098Y-110150333D02*
X155259336Y-110197952D01*
X155259336Y-110197952D02*
X155402193Y-110197952D01*
X155402193Y-110197952D02*
X155497431Y-110150333D01*
X155068860Y-109817000D02*
X155164098Y-109864619D01*
X155164098Y-109864619D02*
X155354574Y-109864619D01*
X155354574Y-109864619D02*
X155449812Y-109817000D01*
X155449812Y-109817000D02*
X155497431Y-109769380D01*
X155497431Y-109769380D02*
X155545050Y-109674142D01*
X155545050Y-109674142D02*
X155545050Y-109388428D01*
X155545050Y-109388428D02*
X155497431Y-109293190D01*
X155497431Y-109293190D02*
X155449812Y-109245571D01*
X155449812Y-109245571D02*
X155354574Y-109197952D01*
X155354574Y-109197952D02*
X155164098Y-109197952D01*
X155164098Y-109197952D02*
X155068860Y-109245571D01*
X154592669Y-109864619D02*
X154592669Y-109197952D01*
X154592669Y-108864619D02*
X154640288Y-108912238D01*
X154640288Y-108912238D02*
X154592669Y-108959857D01*
X154592669Y-108959857D02*
X154545050Y-108912238D01*
X154545050Y-108912238D02*
X154592669Y-108864619D01*
X154592669Y-108864619D02*
X154592669Y-108959857D01*
X154259336Y-109197952D02*
X153878384Y-109197952D01*
X154116479Y-108864619D02*
X154116479Y-109721761D01*
X154116479Y-109721761D02*
X154068860Y-109817000D01*
X154068860Y-109817000D02*
X153973622Y-109864619D01*
X153973622Y-109864619D02*
X153878384Y-109864619D01*
X153545050Y-109864619D02*
X153545050Y-108864619D01*
X153116479Y-109864619D02*
X153116479Y-109340809D01*
X153116479Y-109340809D02*
X153164098Y-109245571D01*
X153164098Y-109245571D02*
X153259336Y-109197952D01*
X153259336Y-109197952D02*
X153402193Y-109197952D01*
X153402193Y-109197952D02*
X153497431Y-109245571D01*
X153497431Y-109245571D02*
X153545050Y-109293190D01*
X152211717Y-109197952D02*
X152211717Y-109864619D01*
X152640288Y-109197952D02*
X152640288Y-109721761D01*
X152640288Y-109721761D02*
X152592669Y-109817000D01*
X152592669Y-109817000D02*
X152497431Y-109864619D01*
X152497431Y-109864619D02*
X152354574Y-109864619D01*
X152354574Y-109864619D02*
X152259336Y-109817000D01*
X152259336Y-109817000D02*
X152211717Y-109769380D01*
X151735526Y-109864619D02*
X151735526Y-108864619D01*
X151735526Y-109245571D02*
X151640288Y-109197952D01*
X151640288Y-109197952D02*
X151449812Y-109197952D01*
X151449812Y-109197952D02*
X151354574Y-109245571D01*
X151354574Y-109245571D02*
X151306955Y-109293190D01*
X151306955Y-109293190D02*
X151259336Y-109388428D01*
X151259336Y-109388428D02*
X151259336Y-109674142D01*
X151259336Y-109674142D02*
X151306955Y-109769380D01*
X151306955Y-109769380D02*
X151354574Y-109817000D01*
X151354574Y-109817000D02*
X151449812Y-109864619D01*
X151449812Y-109864619D02*
X151640288Y-109864619D01*
X151640288Y-109864619D02*
X151735526Y-109817000D01*
X150830764Y-109769380D02*
X150783145Y-109817000D01*
X150783145Y-109817000D02*
X150830764Y-109864619D01*
X150830764Y-109864619D02*
X150878383Y-109817000D01*
X150878383Y-109817000D02*
X150830764Y-109769380D01*
X150830764Y-109769380D02*
X150830764Y-109864619D01*
X149926003Y-109817000D02*
X150021241Y-109864619D01*
X150021241Y-109864619D02*
X150211717Y-109864619D01*
X150211717Y-109864619D02*
X150306955Y-109817000D01*
X150306955Y-109817000D02*
X150354574Y-109769380D01*
X150354574Y-109769380D02*
X150402193Y-109674142D01*
X150402193Y-109674142D02*
X150402193Y-109388428D01*
X150402193Y-109388428D02*
X150354574Y-109293190D01*
X150354574Y-109293190D02*
X150306955Y-109245571D01*
X150306955Y-109245571D02*
X150211717Y-109197952D01*
X150211717Y-109197952D02*
X150021241Y-109197952D01*
X150021241Y-109197952D02*
X149926003Y-109245571D01*
X149354574Y-109864619D02*
X149449812Y-109817000D01*
X149449812Y-109817000D02*
X149497431Y-109769380D01*
X149497431Y-109769380D02*
X149545050Y-109674142D01*
X149545050Y-109674142D02*
X149545050Y-109388428D01*
X149545050Y-109388428D02*
X149497431Y-109293190D01*
X149497431Y-109293190D02*
X149449812Y-109245571D01*
X149449812Y-109245571D02*
X149354574Y-109197952D01*
X149354574Y-109197952D02*
X149211717Y-109197952D01*
X149211717Y-109197952D02*
X149116479Y-109245571D01*
X149116479Y-109245571D02*
X149068860Y-109293190D01*
X149068860Y-109293190D02*
X149021241Y-109388428D01*
X149021241Y-109388428D02*
X149021241Y-109674142D01*
X149021241Y-109674142D02*
X149068860Y-109769380D01*
X149068860Y-109769380D02*
X149116479Y-109817000D01*
X149116479Y-109817000D02*
X149211717Y-109864619D01*
X149211717Y-109864619D02*
X149354574Y-109864619D01*
X148592669Y-109864619D02*
X148592669Y-109197952D01*
X148592669Y-109293190D02*
X148545050Y-109245571D01*
X148545050Y-109245571D02*
X148449812Y-109197952D01*
X148449812Y-109197952D02*
X148306955Y-109197952D01*
X148306955Y-109197952D02*
X148211717Y-109245571D01*
X148211717Y-109245571D02*
X148164098Y-109340809D01*
X148164098Y-109340809D02*
X148164098Y-109864619D01*
X148164098Y-109340809D02*
X148116479Y-109245571D01*
X148116479Y-109245571D02*
X148021241Y-109197952D01*
X148021241Y-109197952D02*
X147878384Y-109197952D01*
X147878384Y-109197952D02*
X147783145Y-109245571D01*
X147783145Y-109245571D02*
X147735526Y-109340809D01*
X147735526Y-109340809D02*
X147735526Y-109864619D01*
X146545051Y-108817000D02*
X147402193Y-110102714D01*
X146211717Y-109340809D02*
X145878384Y-109340809D01*
X145735527Y-109864619D02*
X146211717Y-109864619D01*
X146211717Y-109864619D02*
X146211717Y-108864619D01*
X146211717Y-108864619D02*
X145735527Y-108864619D01*
X145402193Y-109864619D02*
X144878384Y-109197952D01*
X145402193Y-109197952D02*
X144878384Y-109864619D01*
X144497431Y-109197952D02*
X144497431Y-110197952D01*
X144497431Y-109245571D02*
X144402193Y-109197952D01*
X144402193Y-109197952D02*
X144211717Y-109197952D01*
X144211717Y-109197952D02*
X144116479Y-109245571D01*
X144116479Y-109245571D02*
X144068860Y-109293190D01*
X144068860Y-109293190D02*
X144021241Y-109388428D01*
X144021241Y-109388428D02*
X144021241Y-109674142D01*
X144021241Y-109674142D02*
X144068860Y-109769380D01*
X144068860Y-109769380D02*
X144116479Y-109817000D01*
X144116479Y-109817000D02*
X144211717Y-109864619D01*
X144211717Y-109864619D02*
X144402193Y-109864619D01*
X144402193Y-109864619D02*
X144497431Y-109817000D01*
X143449812Y-109864619D02*
X143545050Y-109817000D01*
X143545050Y-109817000D02*
X143592669Y-109769380D01*
X143592669Y-109769380D02*
X143640288Y-109674142D01*
X143640288Y-109674142D02*
X143640288Y-109388428D01*
X143640288Y-109388428D02*
X143592669Y-109293190D01*
X143592669Y-109293190D02*
X143545050Y-109245571D01*
X143545050Y-109245571D02*
X143449812Y-109197952D01*
X143449812Y-109197952D02*
X143306955Y-109197952D01*
X143306955Y-109197952D02*
X143211717Y-109245571D01*
X143211717Y-109245571D02*
X143164098Y-109293190D01*
X143164098Y-109293190D02*
X143116479Y-109388428D01*
X143116479Y-109388428D02*
X143116479Y-109674142D01*
X143116479Y-109674142D02*
X143164098Y-109769380D01*
X143164098Y-109769380D02*
X143211717Y-109817000D01*
X143211717Y-109817000D02*
X143306955Y-109864619D01*
X143306955Y-109864619D02*
X143449812Y-109864619D01*
X142735526Y-109817000D02*
X142640288Y-109864619D01*
X142640288Y-109864619D02*
X142449812Y-109864619D01*
X142449812Y-109864619D02*
X142354574Y-109817000D01*
X142354574Y-109817000D02*
X142306955Y-109721761D01*
X142306955Y-109721761D02*
X142306955Y-109674142D01*
X142306955Y-109674142D02*
X142354574Y-109578904D01*
X142354574Y-109578904D02*
X142449812Y-109531285D01*
X142449812Y-109531285D02*
X142592669Y-109531285D01*
X142592669Y-109531285D02*
X142687907Y-109483666D01*
X142687907Y-109483666D02*
X142735526Y-109388428D01*
X142735526Y-109388428D02*
X142735526Y-109340809D01*
X142735526Y-109340809D02*
X142687907Y-109245571D01*
X142687907Y-109245571D02*
X142592669Y-109197952D01*
X142592669Y-109197952D02*
X142449812Y-109197952D01*
X142449812Y-109197952D02*
X142354574Y-109245571D01*
X141449812Y-109197952D02*
X141449812Y-109864619D01*
X141878383Y-109197952D02*
X141878383Y-109721761D01*
X141878383Y-109721761D02*
X141830764Y-109817000D01*
X141830764Y-109817000D02*
X141735526Y-109864619D01*
X141735526Y-109864619D02*
X141592669Y-109864619D01*
X141592669Y-109864619D02*
X141497431Y-109817000D01*
X141497431Y-109817000D02*
X141449812Y-109769380D01*
X140973621Y-109864619D02*
X140973621Y-109197952D01*
X140973621Y-109388428D02*
X140926002Y-109293190D01*
X140926002Y-109293190D02*
X140878383Y-109245571D01*
X140878383Y-109245571D02*
X140783145Y-109197952D01*
X140783145Y-109197952D02*
X140687907Y-109197952D01*
X139973621Y-109817000D02*
X140068859Y-109864619D01*
X140068859Y-109864619D02*
X140259335Y-109864619D01*
X140259335Y-109864619D02*
X140354573Y-109817000D01*
X140354573Y-109817000D02*
X140402192Y-109721761D01*
X140402192Y-109721761D02*
X140402192Y-109340809D01*
X140402192Y-109340809D02*
X140354573Y-109245571D01*
X140354573Y-109245571D02*
X140259335Y-109197952D01*
X140259335Y-109197952D02*
X140068859Y-109197952D01*
X140068859Y-109197952D02*
X139973621Y-109245571D01*
X139973621Y-109245571D02*
X139926002Y-109340809D01*
X139926002Y-109340809D02*
X139926002Y-109436047D01*
X139926002Y-109436047D02*
X140402192Y-109531285D01*
X139021240Y-109864619D02*
X139497430Y-109864619D01*
X139497430Y-109864619D02*
X139497430Y-108864619D01*
X138259335Y-109864619D02*
X138259335Y-109340809D01*
X138259335Y-109340809D02*
X138306954Y-109245571D01*
X138306954Y-109245571D02*
X138402192Y-109197952D01*
X138402192Y-109197952D02*
X138592668Y-109197952D01*
X138592668Y-109197952D02*
X138687906Y-109245571D01*
X138259335Y-109817000D02*
X138354573Y-109864619D01*
X138354573Y-109864619D02*
X138592668Y-109864619D01*
X138592668Y-109864619D02*
X138687906Y-109817000D01*
X138687906Y-109817000D02*
X138735525Y-109721761D01*
X138735525Y-109721761D02*
X138735525Y-109626523D01*
X138735525Y-109626523D02*
X138687906Y-109531285D01*
X138687906Y-109531285D02*
X138592668Y-109483666D01*
X138592668Y-109483666D02*
X138354573Y-109483666D01*
X138354573Y-109483666D02*
X138259335Y-109436047D01*
X137783144Y-109864619D02*
X137783144Y-108864619D01*
X137783144Y-109245571D02*
X137687906Y-109197952D01*
X137687906Y-109197952D02*
X137497430Y-109197952D01*
X137497430Y-109197952D02*
X137402192Y-109245571D01*
X137402192Y-109245571D02*
X137354573Y-109293190D01*
X137354573Y-109293190D02*
X137306954Y-109388428D01*
X137306954Y-109388428D02*
X137306954Y-109674142D01*
X137306954Y-109674142D02*
X137354573Y-109769380D01*
X137354573Y-109769380D02*
X137402192Y-109817000D01*
X137402192Y-109817000D02*
X137497430Y-109864619D01*
X137497430Y-109864619D02*
X137687906Y-109864619D01*
X137687906Y-109864619D02*
X137783144Y-109817000D01*
X136926001Y-109817000D02*
X136830763Y-109864619D01*
X136830763Y-109864619D02*
X136640287Y-109864619D01*
X136640287Y-109864619D02*
X136545049Y-109817000D01*
X136545049Y-109817000D02*
X136497430Y-109721761D01*
X136497430Y-109721761D02*
X136497430Y-109674142D01*
X136497430Y-109674142D02*
X136545049Y-109578904D01*
X136545049Y-109578904D02*
X136640287Y-109531285D01*
X136640287Y-109531285D02*
X136783144Y-109531285D01*
X136783144Y-109531285D02*
X136878382Y-109483666D01*
X136878382Y-109483666D02*
X136926001Y-109388428D01*
X136926001Y-109388428D02*
X136926001Y-109340809D01*
X136926001Y-109340809D02*
X136878382Y-109245571D01*
X136878382Y-109245571D02*
X136783144Y-109197952D01*
X136783144Y-109197952D02*
X136640287Y-109197952D01*
X136640287Y-109197952D02*
X136545049Y-109245571D01*
D12*
G36*
X140483251Y-105434528D02*
G01*
X140483251Y-105090635D01*
X139074947Y-105090635D01*
X139074947Y-105434528D01*
X140483251Y-105434528D01*
G37*
G36*
X140483251Y-106028527D02*
G01*
X140483251Y-105684633D01*
X139074947Y-105684633D01*
X139074947Y-106028527D01*
X140483251Y-106028527D01*
G37*
G36*
X138860502Y-105983098D02*
G01*
X138486810Y-105934738D01*
X138482893Y-105962596D01*
X138477920Y-105989200D01*
X138471891Y-106014551D01*
X138464806Y-106038648D01*
X138456664Y-106061491D01*
X138447466Y-106083081D01*
X138437212Y-106103417D01*
X138425902Y-106122500D01*
X138413536Y-106140328D01*
X138400114Y-106156903D01*
X138390579Y-106167257D01*
X138375632Y-106181574D01*
X138360102Y-106194482D01*
X138343987Y-106205983D01*
X138321593Y-106219126D01*
X138298161Y-106229766D01*
X138273691Y-106237902D01*
X138254658Y-106242362D01*
X138235040Y-106245413D01*
X138214838Y-106247056D01*
X138201046Y-106247369D01*
X138179029Y-106246566D01*
X138157672Y-106244157D01*
X138136977Y-106240143D01*
X138116943Y-106234523D01*
X138097570Y-106227297D01*
X138078858Y-106218466D01*
X138060807Y-106208029D01*
X138043418Y-106195986D01*
X138026690Y-106182338D01*
X138010623Y-106167083D01*
X138000279Y-106156022D01*
X137985613Y-106138332D01*
X137972389Y-106119517D01*
X137960608Y-106099577D01*
X137950270Y-106078513D01*
X137941374Y-106056324D01*
X137933921Y-106033009D01*
X137927910Y-106008570D01*
X137923342Y-105983006D01*
X137920217Y-105956318D01*
X137918534Y-105928504D01*
X137918213Y-105909337D01*
X137918904Y-105882392D01*
X137920978Y-105856511D01*
X137924434Y-105831696D01*
X137929273Y-105807945D01*
X137935494Y-105785259D01*
X137943097Y-105763638D01*
X137952083Y-105743082D01*
X137962452Y-105723590D01*
X137974202Y-105705163D01*
X137987336Y-105687801D01*
X137996859Y-105676817D01*
X138011814Y-105661453D01*
X138027371Y-105647600D01*
X138043528Y-105635258D01*
X138060286Y-105624427D01*
X138077645Y-105615108D01*
X138095606Y-105607300D01*
X138114167Y-105601003D01*
X138133330Y-105596217D01*
X138153094Y-105592943D01*
X138173458Y-105591180D01*
X138187369Y-105590844D01*
X138211275Y-105591548D01*
X138231414Y-105593124D01*
X138252453Y-105595600D01*
X138274393Y-105598978D01*
X138297234Y-105603256D01*
X138320975Y-105608435D01*
X138345617Y-105614514D01*
X138364689Y-105619665D01*
X138322191Y-105309476D01*
X138293447Y-105309599D01*
X138266017Y-105308503D01*
X138239900Y-105306187D01*
X138215098Y-105302653D01*
X138191609Y-105297898D01*
X138169434Y-105291925D01*
X138148573Y-105284732D01*
X138129025Y-105276320D01*
X138110791Y-105266689D01*
X138093871Y-105255838D01*
X138083321Y-105247927D01*
X138063973Y-105230891D01*
X138047204Y-105212512D01*
X138033015Y-105192789D01*
X138021406Y-105171723D01*
X138012376Y-105149314D01*
X138005927Y-105125561D01*
X138002057Y-105100465D01*
X138000848Y-105080762D01*
X138000767Y-105074026D01*
X138001714Y-105051533D01*
X138004553Y-105030215D01*
X138009285Y-105010073D01*
X138015910Y-104991106D01*
X138024428Y-104973314D01*
X138034839Y-104956698D01*
X138047143Y-104941257D01*
X138061339Y-104926992D01*
X138076994Y-104914055D01*
X138093915Y-104902842D01*
X138112104Y-104893355D01*
X138131559Y-104885593D01*
X138152282Y-104879555D01*
X138174271Y-104875243D01*
X138197528Y-104872655D01*
X138222051Y-104871793D01*
X138246277Y-104872793D01*
X138269617Y-104875792D01*
X138292073Y-104880792D01*
X138313642Y-104887791D01*
X138334327Y-104896790D01*
X138354125Y-104907788D01*
X138373039Y-104920787D01*
X138391067Y-104935785D01*
X138407676Y-104952584D01*
X138422575Y-104971230D01*
X138435764Y-104991724D01*
X138447243Y-105014064D01*
X138457013Y-105038252D01*
X138463218Y-105057605D01*
X138468462Y-105077997D01*
X138472744Y-105099428D01*
X138476064Y-105121898D01*
X138831681Y-105065722D01*
X138826894Y-105042690D01*
X138821812Y-105020247D01*
X138816437Y-104998391D01*
X138810768Y-104977123D01*
X138804805Y-104956442D01*
X138798548Y-104936349D01*
X138791998Y-104916844D01*
X138785153Y-104897927D01*
X138778015Y-104879597D01*
X138766756Y-104853205D01*
X138754836Y-104828135D01*
X138742255Y-104804387D01*
X138729013Y-104781961D01*
X138719818Y-104767745D01*
X138705285Y-104747192D01*
X138689713Y-104727480D01*
X138673102Y-104708609D01*
X138655452Y-104690580D01*
X138636764Y-104673392D01*
X138617036Y-104657046D01*
X138596269Y-104641542D01*
X138574463Y-104626878D01*
X138551618Y-104613057D01*
X138527734Y-104600077D01*
X138511235Y-104591891D01*
X138485768Y-104580455D01*
X138459743Y-104570143D01*
X138433160Y-104560957D01*
X138406019Y-104552896D01*
X138378320Y-104545959D01*
X138350063Y-104540147D01*
X138321248Y-104535461D01*
X138301727Y-104532961D01*
X138281959Y-104530961D01*
X138261942Y-104529461D01*
X138241678Y-104528461D01*
X138221165Y-104527962D01*
X138210816Y-104527899D01*
X138175719Y-104528592D01*
X138141504Y-104530670D01*
X138108171Y-104534133D01*
X138075719Y-104538982D01*
X138044149Y-104545215D01*
X138013460Y-104552835D01*
X137983653Y-104561839D01*
X137954727Y-104572229D01*
X137926683Y-104584004D01*
X137899521Y-104597165D01*
X137873240Y-104611711D01*
X137847841Y-104627642D01*
X137823323Y-104644958D01*
X137799687Y-104663660D01*
X137776932Y-104683747D01*
X137755059Y-104705219D01*
X137737905Y-104723503D01*
X137721857Y-104742085D01*
X137706916Y-104760964D01*
X137693082Y-104780141D01*
X137680355Y-104799615D01*
X137668734Y-104819388D01*
X137658220Y-104839457D01*
X137648813Y-104859825D01*
X137640513Y-104880490D01*
X137633319Y-104901453D01*
X137627232Y-104922714D01*
X137622252Y-104944272D01*
X137618378Y-104966128D01*
X137615611Y-104988282D01*
X137613951Y-105010733D01*
X137613398Y-105033482D01*
X137614529Y-105065495D01*
X137617924Y-105096687D01*
X137623582Y-105127059D01*
X137631502Y-105156611D01*
X137641686Y-105185342D01*
X137654133Y-105213252D01*
X137668843Y-105240342D01*
X137685816Y-105266612D01*
X137705052Y-105292060D01*
X137726551Y-105316689D01*
X137750313Y-105340497D01*
X137776338Y-105363484D01*
X137804627Y-105385651D01*
X137835178Y-105406998D01*
X137867993Y-105427524D01*
X137885248Y-105437479D01*
X137903070Y-105447229D01*
X137881725Y-105452360D01*
X137860923Y-105458228D01*
X137840662Y-105464832D01*
X137820943Y-105472172D01*
X137801766Y-105480250D01*
X137783131Y-105489063D01*
X137765038Y-105498614D01*
X137747487Y-105508900D01*
X137730478Y-105519924D01*
X137714011Y-105531684D01*
X137698085Y-105544180D01*
X137682702Y-105557413D01*
X137667860Y-105571383D01*
X137653561Y-105586089D01*
X137639803Y-105601531D01*
X137626587Y-105617711D01*
X137613988Y-105634413D01*
X137602201Y-105651546D01*
X137591227Y-105669110D01*
X137581066Y-105687106D01*
X137571718Y-105705533D01*
X137563183Y-105724391D01*
X137555461Y-105743681D01*
X137548551Y-105763401D01*
X137542455Y-105783553D01*
X137537171Y-105804137D01*
X137532701Y-105825151D01*
X137529043Y-105846597D01*
X137526198Y-105868474D01*
X137524165Y-105890782D01*
X137522946Y-105913521D01*
X137522540Y-105936692D01*
X137523297Y-105970329D01*
X137525570Y-106003340D01*
X137529357Y-106035725D01*
X137534660Y-106067484D01*
X137541478Y-106098617D01*
X137549811Y-106129125D01*
X137559659Y-106159006D01*
X137571022Y-106188262D01*
X137583900Y-106216892D01*
X137598293Y-106244896D01*
X137614201Y-106272274D01*
X137631625Y-106299026D01*
X137650563Y-106325152D01*
X137671016Y-106350653D01*
X137692985Y-106375527D01*
X137716468Y-106399776D01*
X137741021Y-106422964D01*
X137766317Y-106444656D01*
X137792357Y-106464852D01*
X137819142Y-106483551D01*
X137846671Y-106500755D01*
X137874944Y-106516463D01*
X137903961Y-106530675D01*
X137933722Y-106543391D01*
X137964228Y-106554611D01*
X137995478Y-106564335D01*
X138027472Y-106572563D01*
X138060210Y-106579295D01*
X138093692Y-106584531D01*
X138127918Y-106588271D01*
X138162889Y-106590515D01*
X138198604Y-106591263D01*
X138232374Y-106590606D01*
X138265420Y-106588637D01*
X138297740Y-106585355D01*
X138329335Y-106580760D01*
X138360205Y-106574853D01*
X138390350Y-106567632D01*
X138419770Y-106559099D01*
X138448464Y-106549253D01*
X138476434Y-106538094D01*
X138503678Y-106525622D01*
X138530198Y-106511838D01*
X138555992Y-106496741D01*
X138581061Y-106480331D01*
X138605406Y-106462608D01*
X138629025Y-106443572D01*
X138651919Y-106423224D01*
X138673799Y-106401755D01*
X138694501Y-106379481D01*
X138714023Y-106356402D01*
X138732366Y-106332518D01*
X138749530Y-106307828D01*
X138765514Y-106282334D01*
X138780320Y-106256034D01*
X138793946Y-106228928D01*
X138806393Y-106201018D01*
X138817660Y-106172302D01*
X138827749Y-106142781D01*
X138836658Y-106112455D01*
X138844388Y-106081324D01*
X138850938Y-106049387D01*
X138856310Y-106016645D01*
X138860502Y-105983098D01*
G37*
M02*
