%TF.GenerationSoftware,KiCad,Pcbnew,7.0.9*%
%TF.CreationDate,2023-11-19T12:55:52-08:00*%
%TF.ProjectId,M13-SDL-Rev1,4d31332d-5344-44c2-9d52-6576312e6b69,1*%
%TF.SameCoordinates,Original*%
%TF.FileFunction,Copper,L1,Top*%
%TF.FilePolarity,Positive*%
%FSLAX46Y46*%
G04 Gerber Fmt 4.6, Leading zero omitted, Abs format (unit mm)*
G04 Created by KiCad (PCBNEW 7.0.9) date 2023-11-19 12:55:52*
%MOMM*%
%LPD*%
G01*
G04 APERTURE LIST*
G04 Aperture macros list*
%AMRoundRect*
0 Rectangle with rounded corners*
0 $1 Rounding radius*
0 $2 $3 $4 $5 $6 $7 $8 $9 X,Y pos of 4 corners*
0 Add a 4 corners polygon primitive as box body*
4,1,4,$2,$3,$4,$5,$6,$7,$8,$9,$2,$3,0*
0 Add four circle primitives for the rounded corners*
1,1,$1+$1,$2,$3*
1,1,$1+$1,$4,$5*
1,1,$1+$1,$6,$7*
1,1,$1+$1,$8,$9*
0 Add four rect primitives between the rounded corners*
20,1,$1+$1,$2,$3,$4,$5,0*
20,1,$1+$1,$4,$5,$6,$7,0*
20,1,$1+$1,$6,$7,$8,$9,0*
20,1,$1+$1,$8,$9,$2,$3,0*%
G04 Aperture macros list end*
%TA.AperFunction,ComponentPad*%
%ADD10O,1.950000X1.700000*%
%TD*%
%TA.AperFunction,ComponentPad*%
%ADD11RoundRect,0.250000X-0.725000X0.600000X-0.725000X-0.600000X0.725000X-0.600000X0.725000X0.600000X0*%
%TD*%
%TA.AperFunction,ComponentPad*%
%ADD12C,1.100000*%
%TD*%
%TA.AperFunction,ComponentPad*%
%ADD13O,5.000000X4.250000*%
%TD*%
%TA.AperFunction,Conductor*%
%ADD14C,0.250000*%
%TD*%
%TA.AperFunction,Conductor*%
%ADD15C,0.000000*%
%TD*%
G04 APERTURE END LIST*
D10*
%TO.P,REF\u002A\u002A,6*%
%TO.N,M_DATA*%
X130250000Y-107250000D03*
%TO.P,REF\u002A\u002A,5*%
%TO.N,+5V*%
X130250000Y-104750000D03*
%TO.P,REF\u002A\u002A,4*%
%TO.N,KB_CLK*%
X130250000Y-102250000D03*
%TO.P,REF\u002A\u002A,3*%
%TO.N,GND*%
X130250000Y-99750000D03*
%TO.P,REF\u002A\u002A,2*%
%TO.N,KB_DATA*%
X130250000Y-97250000D03*
D11*
%TO.P,REF\u002A\u002A,1*%
%TO.N,M_CLK*%
X130250000Y-94750000D03*
%TD*%
D12*
%TO.P,REF\u002A\u002A,1*%
%TO.N,M_CLK*%
X149160000Y-103775000D03*
%TO.P,REF\u002A\u002A,3*%
%TO.N,GND*%
X146620000Y-103775000D03*
%TO.P,REF\u002A\u002A,2*%
%TO.N,KB_DATA*%
X147890000Y-106315000D03*
%TO.P,REF\u002A\u002A,4*%
%TO.N,KB_CLK*%
X145350000Y-106315000D03*
%TO.P,REF\u002A\u002A,5*%
%TO.N,+5V*%
X144080000Y-103775000D03*
%TO.P,REF\u002A\u002A,6*%
%TO.N,M_DATA*%
X142810000Y-106315000D03*
D13*
%TO.P,REF\u002A\u002A,13*%
%TO.N,N/C*%
X139000000Y-100600000D03*
%TO.P,REF\u002A\u002A,14*%
X152970000Y-100600000D03*
%TD*%
D14*
%TO.N,M_DATA*%
X138223811Y-106413191D02*
X138655060Y-106435686D01*
X136515719Y-106194411D02*
X136938282Y-106268192D01*
X133562481Y-106166659D02*
X133151352Y-106271652D01*
X135248750Y-106017510D02*
X134824443Y-106013747D01*
X134400782Y-106037436D02*
X133979540Y-106088478D01*
X137362879Y-106329185D02*
X137789124Y-106377335D01*
X135671924Y-106048710D02*
X136092195Y-106107215D01*
X139086791Y-106445156D02*
X139518612Y-106441590D01*
%TO.N,+5V*%
X135751903Y-104476443D02*
X135518587Y-104473040D01*
X134820470Y-104519210D02*
X134589634Y-104553311D01*
X142392354Y-104307395D02*
X142229836Y-104352041D01*
X140362223Y-104791247D02*
X139981531Y-104834084D01*
X135984891Y-104489247D02*
X136217175Y-104511431D01*
X130272655Y-104742966D02*
X130275412Y-104746324D01*
X139216124Y-104863015D02*
X139599186Y-104858027D01*
X143038944Y-104116667D02*
X142877838Y-104166166D01*
X134358952Y-104596953D02*
X134127913Y-104635093D01*
X133896046Y-104667825D02*
X133663477Y-104695127D01*
X138451607Y-104816127D02*
X138833285Y-104849037D01*
X130270566Y-104734628D02*
X130270992Y-104738952D01*
X141114918Y-104649352D02*
X140740327Y-104729619D01*
X130279024Y-104748738D02*
X130283182Y-104750000D01*
X135285324Y-104479042D02*
X135052492Y-104494441D01*
X132960541Y-104744514D02*
X132725928Y-104750000D01*
X142716364Y-104214455D02*
X142554534Y-104261533D01*
X143360021Y-104014054D02*
X143199675Y-104065963D01*
X130273463Y-104726534D02*
X130271414Y-104730366D01*
X133429061Y-104717107D02*
X133194961Y-104733548D01*
%TO.N,KB_CLK*%
X144093563Y-101775230D02*
X144309984Y-101927878D01*
X138783916Y-103613892D02*
X139228198Y-103612320D01*
X143850172Y-101670822D02*
X143590413Y-101619201D01*
X136170797Y-103142897D02*
X136594144Y-103277681D01*
X141617119Y-102905960D02*
X141281103Y-103112678D01*
X144542154Y-102178377D02*
X144727875Y-102420658D01*
X142219685Y-102398081D02*
X141931008Y-102666977D01*
X140174232Y-103520629D02*
X139784432Y-103581418D01*
X142826636Y-101791566D02*
X142614222Y-101949743D01*
X145318913Y-103949181D02*
X145350000Y-104280937D01*
X137898103Y-103547862D02*
X138340151Y-103592387D01*
X145164834Y-103301567D02*
X145257011Y-103621773D01*
X133987249Y-102446995D02*
X134415187Y-102544994D01*
X133120315Y-102309238D02*
X133555332Y-102368357D01*
X134838281Y-102662155D02*
X135255673Y-102798240D01*
X140926265Y-103285101D02*
X140556095Y-103421532D01*
X144890183Y-102679208D02*
X145027662Y-102951773D01*
X143325596Y-101622616D02*
X143067254Y-101680917D01*
X137023919Y-103390296D02*
X137458964Y-103480437D01*
X132683078Y-102269759D02*
X132244507Y-102250000D01*
%TO.N,GND*%
X145404459Y-101604859D02*
X145593742Y-101875351D01*
X140503076Y-97897973D02*
X140980361Y-98028798D01*
X144530921Y-100616757D02*
X144765892Y-100848667D01*
X145770568Y-102154144D02*
X145934574Y-102440667D01*
X136964021Y-97971177D02*
X136456069Y-98061239D01*
X137991391Y-97840233D02*
X137486693Y-97896030D01*
D15*
X146624123Y-104023598D02*
X146621392Y-104024142D01*
D14*
X142310828Y-98677928D02*
X142707687Y-98973595D01*
X146615874Y-104023598D02*
X146618605Y-104024142D01*
D15*
X146629013Y-104020984D02*
X146626697Y-104022532D01*
D14*
X135951333Y-98167854D02*
X135450350Y-98290907D01*
X146610984Y-104020984D02*
X146613300Y-104022532D01*
X139004907Y-97778252D02*
X138497642Y-97800960D01*
X144990109Y-101090990D02*
X145203111Y-101343227D01*
X141443401Y-98203471D02*
X141888176Y-98420476D01*
X140015688Y-97812132D02*
X139522426Y-97772017D01*
%TO.N,KB_DATA*%
X134244258Y-96857222D02*
X133662154Y-96905653D01*
X146576611Y-101192692D02*
X146851146Y-101505776D01*
X144661372Y-99411356D02*
X144983625Y-99707572D01*
X135410568Y-96791076D02*
X134827123Y-96819026D01*
X144014779Y-98821206D02*
X144338423Y-99115900D01*
X147715793Y-103378788D02*
X147775994Y-103790816D01*
X137162588Y-96768772D02*
X137746557Y-96781861D01*
X142945281Y-97912758D02*
X143358024Y-98226021D01*
X145943198Y-100597928D02*
X146256637Y-100891541D01*
X147094475Y-101843686D02*
X147304365Y-102203321D01*
X136578480Y-96765945D02*
X135994413Y-96773381D01*
X142046110Y-97399514D02*
X142506870Y-97636559D01*
X145314249Y-100012923D02*
X145629068Y-100305055D01*
X140051315Y-96874051D02*
X140565301Y-96939688D01*
X141071637Y-97049754D02*
X141566488Y-97203417D01*
X147478892Y-102581384D02*
X147616455Y-102974408D01*
%TO.N,M_CLK*%
X142029150Y-96135998D02*
X142550588Y-96319412D01*
X130322593Y-94801592D02*
X130330942Y-94803178D01*
X144006455Y-97106162D02*
X144445604Y-97441850D01*
X130306453Y-94796317D02*
X130314411Y-94799299D01*
X147810485Y-100561722D02*
X148027081Y-100856487D01*
X130291445Y-94788377D02*
X130298779Y-94792668D01*
X148548977Y-101819842D02*
X148677584Y-102162275D01*
X130278003Y-94778003D02*
X130284502Y-94783477D01*
X148222959Y-101165408D02*
X148397197Y-101487030D01*
X147319312Y-100020130D02*
X147574192Y-100282498D01*
X143056012Y-96543205D02*
X143542303Y-96805996D01*
X140951197Y-95894587D02*
X141494920Y-95994098D01*
%TO.N,M_DATA*%
X138655060Y-106435686D02*
X139086791Y-106445156D01*
X135248750Y-106017510D02*
X135671924Y-106048710D01*
X136938282Y-106268192D02*
X137362879Y-106329185D01*
X133562481Y-106166659D02*
X133979540Y-106088478D01*
%TO.N,+5V*%
X143038944Y-104116667D02*
X143199675Y-104065963D01*
X132960541Y-104744514D02*
X133194961Y-104733548D01*
X134127913Y-104635093D02*
X133896046Y-104667825D01*
X139216124Y-104863015D02*
X138833285Y-104849037D01*
X130270566Y-104734628D02*
X130271414Y-104730366D01*
X140362223Y-104791247D02*
X140740327Y-104729619D01*
X142392354Y-104307395D02*
X142554534Y-104261533D01*
X134820470Y-104519210D02*
X135052492Y-104494441D01*
X135751903Y-104476443D02*
X135984891Y-104489247D01*
X130275412Y-104746324D02*
X130279024Y-104748738D01*
%TO.N,KB_CLK*%
X141617119Y-102905960D02*
X141931008Y-102666977D01*
X138783916Y-103613892D02*
X138340151Y-103592387D01*
X140174232Y-103520629D02*
X140556095Y-103421532D01*
X136594144Y-103277681D02*
X137023919Y-103390296D01*
X142826636Y-101791566D02*
X143067254Y-101680917D01*
X144727875Y-102420658D02*
X144890183Y-102679208D01*
X134415187Y-102544994D02*
X134838281Y-102662155D01*
X144093563Y-101775230D02*
X143850172Y-101670822D01*
X145318913Y-103949181D02*
X145257011Y-103621773D01*
X133120315Y-102309238D02*
X132683078Y-102269759D01*
%TO.N,GND*%
X137991391Y-97840233D02*
X138497642Y-97800960D01*
X140503076Y-97897973D02*
X140015688Y-97812132D01*
X145593742Y-101875351D02*
X145770568Y-102154144D01*
X144765892Y-100848667D02*
X144990109Y-101090990D01*
X142310828Y-98677928D02*
X141888176Y-98420476D01*
D15*
X146624123Y-104023598D02*
X146626697Y-104022532D01*
D14*
X146615874Y-104023598D02*
X146613300Y-104022532D01*
X136456069Y-98061239D02*
X135951333Y-98167854D01*
%TO.N,KB_DATA*%
X144661372Y-99411356D02*
X144338423Y-99115900D01*
X146851146Y-101505776D02*
X147094475Y-101843686D01*
X145943198Y-100597928D02*
X145629068Y-100305055D01*
X142945281Y-97912758D02*
X142506870Y-97636559D01*
X134244258Y-96857222D02*
X134827123Y-96819026D01*
X147715793Y-103378788D02*
X147616455Y-102974408D01*
X137162588Y-96768772D02*
X136578480Y-96765945D01*
X140565301Y-96939688D02*
X141071637Y-97049754D01*
%TO.N,M_CLK*%
X130322593Y-94801592D02*
X130314411Y-94799299D01*
X148548977Y-101819842D02*
X148397197Y-101487030D01*
X147810485Y-100561722D02*
X147574192Y-100282498D01*
X144006455Y-97106162D02*
X143542303Y-96805996D01*
X130291445Y-94788377D02*
X130284502Y-94783477D01*
X142029150Y-96135998D02*
X141494920Y-95994098D01*
%TO.N,M_DATA*%
X138223811Y-106413191D02*
X137789124Y-106377335D01*
X134824443Y-106013747D02*
X134400782Y-106037436D01*
%TO.N,+5V*%
X139981531Y-104834084D02*
X139599186Y-104858027D01*
X142877838Y-104166166D02*
X142716364Y-104214455D01*
X130272655Y-104742966D02*
X130270992Y-104738952D01*
X133663477Y-104695127D02*
X133429061Y-104717107D01*
X135518587Y-104473040D02*
X135285324Y-104479042D01*
%TO.N,KB_CLK*%
X141281103Y-103112678D02*
X140926265Y-103285101D01*
X145164834Y-103301567D02*
X145027662Y-102951773D01*
X137898103Y-103547862D02*
X137458964Y-103480437D01*
X133987249Y-102446995D02*
X133555332Y-102368357D01*
X143590413Y-101619201D02*
X143325596Y-101622616D01*
%TO.N,GND*%
X145404459Y-101604859D02*
X145203111Y-101343227D01*
X136964021Y-97971177D02*
X137486693Y-97896030D01*
X140980361Y-98028798D02*
X141443401Y-98203471D01*
X146621392Y-104024142D02*
X146618605Y-104024142D01*
%TO.N,KB_DATA*%
X135410568Y-96791076D02*
X135994413Y-96773381D01*
X144983625Y-99707572D02*
X145314249Y-100012923D01*
X147304365Y-102203321D02*
X147478892Y-102581384D01*
X142046110Y-97399514D02*
X141566488Y-97203417D01*
%TO.N,M_CLK*%
X142550588Y-96319412D02*
X143056012Y-96543205D01*
X130306453Y-94796317D02*
X130298779Y-94792668D01*
X148027081Y-100856487D02*
X148222959Y-101165408D01*
%TO.N,KB_CLK*%
X144309984Y-101927878D02*
X144542154Y-102178377D01*
X145350000Y-104280937D02*
X145350000Y-106315000D01*
X142219685Y-102398081D02*
X142614222Y-101949743D01*
X139228198Y-103612320D02*
X139784432Y-103581418D01*
X136170797Y-103142897D02*
X135255673Y-102798240D01*
X132244507Y-102250000D02*
X130250000Y-102250000D01*
%TO.N,GND*%
X135450350Y-98290907D02*
X130250000Y-99750000D01*
X144530921Y-100616757D02*
X142707687Y-98973595D01*
X145934574Y-102440667D02*
X146620000Y-103775000D01*
X139004907Y-97778252D02*
X139522426Y-97772017D01*
%TO.N,KB_DATA*%
X147775994Y-103790816D02*
X147900000Y-106305000D01*
X137746557Y-96781861D02*
X140051315Y-96874051D01*
X144014779Y-98821206D02*
X143358024Y-98226021D01*
X133662154Y-96905653D02*
X130250000Y-97250000D01*
X146576611Y-101192692D02*
X146256637Y-100891541D01*
%TO.N,M_DATA*%
X136515719Y-106194411D02*
X136092195Y-106107215D01*
X133151352Y-106271652D02*
X130300000Y-107200000D01*
X139518612Y-106441590D02*
X142810000Y-106315000D01*
%TO.N,M_CLK*%
X130278003Y-94778003D02*
X130250000Y-94750000D01*
X130330942Y-94803178D02*
X140951197Y-95894587D01*
X144445604Y-97441850D02*
X147319312Y-100020130D01*
X148677584Y-102162275D02*
X149160000Y-103775000D01*
%TO.N,+5V*%
X143360021Y-104014054D02*
X144080000Y-103775000D01*
X142229836Y-104352041D02*
X141114918Y-104649352D01*
X136217175Y-104511431D02*
X138451607Y-104816127D01*
X130283182Y-104750000D02*
X132725928Y-104750000D01*
X134589634Y-104553311D02*
X134358952Y-104596953D01*
%TO.N,GND*%
X146610984Y-104020984D02*
X146600000Y-104010000D01*
%TO.N,+5V*%
X130273463Y-104726534D02*
X130300000Y-104700000D01*
D15*
%TO.N,GND*%
X146629013Y-104020984D02*
X146700000Y-103950000D01*
%TD*%
%TA.AperFunction,Conductor*%
%TO.N,KB_CLK*%
G36*
X145472075Y-105218427D02*
G01*
X145475491Y-105226187D01*
X145480723Y-105345503D01*
X145497055Y-105450516D01*
X145522731Y-105536138D01*
X145556491Y-105608462D01*
X145597070Y-105673581D01*
X145597069Y-105673581D01*
X145643212Y-105737601D01*
X145693650Y-105806608D01*
X145747010Y-105886527D01*
X145747225Y-105886877D01*
X145802253Y-105983763D01*
X145802476Y-105984196D01*
X145853027Y-106093483D01*
X145853390Y-106102431D01*
X145847320Y-106109014D01*
X145846904Y-106109197D01*
X145354496Y-106314128D01*
X145345541Y-106314143D01*
X145345504Y-106314128D01*
X144853095Y-106109197D01*
X144846774Y-106102854D01*
X144846789Y-106093899D01*
X144846953Y-106093524D01*
X144897530Y-105984179D01*
X144897745Y-105983763D01*
X144952777Y-105886870D01*
X144952978Y-105886544D01*
X144977301Y-105850112D01*
X145006349Y-105806608D01*
X145056786Y-105737601D01*
X145102925Y-105673588D01*
X145111884Y-105659210D01*
X145143508Y-105608462D01*
X145177268Y-105536138D01*
X145202944Y-105450516D01*
X145219275Y-105345502D01*
X145224509Y-105226186D01*
X145228295Y-105218072D01*
X145236198Y-105215000D01*
X145463802Y-105215000D01*
X145472075Y-105218427D01*
G37*
%TD.AperFunction*%
%TD*%
%TA.AperFunction,Conductor*%
%TO.N,KB_CLK*%
G36*
X130710074Y-101469405D02*
G01*
X132068366Y-102121814D01*
X132074339Y-102128484D01*
X132075000Y-102132360D01*
X132075000Y-102367639D01*
X132071573Y-102375912D01*
X132068366Y-102378186D01*
X130710076Y-103030593D01*
X130701134Y-103031085D01*
X130694867Y-103025876D01*
X130252349Y-102255829D01*
X130251199Y-102246949D01*
X130252350Y-102244170D01*
X130316603Y-102132360D01*
X130694867Y-101474121D01*
X130701959Y-101468658D01*
X130710074Y-101469405D01*
G37*
%TD.AperFunction*%
%TD*%
%TA.AperFunction,Conductor*%
%TO.N,GND*%
G36*
X131950625Y-99139789D02*
G01*
X131958288Y-99144421D01*
X131960129Y-99148194D01*
X132023691Y-99374732D01*
X132022627Y-99383624D01*
X132020364Y-99386488D01*
X130983551Y-100344104D01*
X130975149Y-100347200D01*
X130968160Y-100344528D01*
X130254126Y-99754474D01*
X130249932Y-99746562D01*
X130250005Y-99743740D01*
X130373278Y-98911617D01*
X130377881Y-98903938D01*
X130386566Y-98901760D01*
X131950625Y-99139789D01*
G37*
%TD.AperFunction*%
%TD*%
%TA.AperFunction,Conductor*%
%TO.N,GND*%
G36*
X146237354Y-102755271D02*
G01*
X146299827Y-102862818D01*
X146299831Y-102862823D01*
X146366758Y-102950070D01*
X146366761Y-102950073D01*
X146366762Y-102950074D01*
X146433803Y-103014219D01*
X146502176Y-103062038D01*
X146512619Y-103067674D01*
X146573105Y-103100318D01*
X146647809Y-103135841D01*
X146727343Y-103175308D01*
X146727674Y-103175486D01*
X146797211Y-103216244D01*
X146813202Y-103225617D01*
X146813687Y-103225934D01*
X146906597Y-103293555D01*
X146907079Y-103293948D01*
X146999805Y-103377853D01*
X147003640Y-103385944D01*
X147000630Y-103394378D01*
X147000242Y-103394787D01*
X146623892Y-103772440D01*
X146615625Y-103775881D01*
X146615586Y-103775881D01*
X146082053Y-103775019D01*
X146073785Y-103771579D01*
X146070372Y-103763300D01*
X146070377Y-103762989D01*
X146073955Y-103649109D01*
X146073976Y-103648788D01*
X146083799Y-103543032D01*
X146083830Y-103542762D01*
X146096510Y-103452205D01*
X146109011Y-103372259D01*
X146118271Y-103298447D01*
X146121244Y-103226156D01*
X146114888Y-103150769D01*
X146096158Y-103067674D01*
X146062010Y-102972254D01*
X146014181Y-102870111D01*
X146013777Y-102861166D01*
X146019432Y-102854743D01*
X146221893Y-102750741D01*
X146230817Y-102750010D01*
X146237354Y-102755271D01*
G37*
%TD.AperFunction*%
%TD*%
%TA.AperFunction,Conductor*%
%TO.N,KB_DATA*%
G36*
X147968559Y-105216352D02*
G01*
X147972349Y-105223902D01*
X147984039Y-105345393D01*
X147984040Y-105345399D01*
X148006862Y-105451271D01*
X148029211Y-105511765D01*
X148038466Y-105536816D01*
X148077571Y-105608437D01*
X148083071Y-105616215D01*
X148122897Y-105672537D01*
X148122897Y-105672536D01*
X148122900Y-105672540D01*
X148173173Y-105735532D01*
X148227012Y-105803693D01*
X148227192Y-105803933D01*
X148283308Y-105883626D01*
X148283560Y-105884018D01*
X148340732Y-105981673D01*
X148340984Y-105982153D01*
X148392967Y-106093462D01*
X148393363Y-106102408D01*
X148387317Y-106109014D01*
X148386862Y-106109215D01*
X147894544Y-106314127D01*
X147885589Y-106314142D01*
X147885553Y-106314127D01*
X147393058Y-106109181D01*
X147386736Y-106102839D01*
X147386751Y-106093884D01*
X147386893Y-106093556D01*
X147435755Y-105986967D01*
X147435933Y-105986614D01*
X147488615Y-105891173D01*
X147488785Y-105890887D01*
X147539185Y-105811497D01*
X147586062Y-105742424D01*
X147628074Y-105678060D01*
X147628073Y-105678060D01*
X147628078Y-105678054D01*
X147663987Y-105612623D01*
X147692539Y-105540374D01*
X147712488Y-105455544D01*
X147722586Y-105352373D01*
X147721673Y-105236326D01*
X147725035Y-105228027D01*
X147732794Y-105224550D01*
X147960127Y-105213337D01*
X147968559Y-105216352D01*
G37*
%TD.AperFunction*%
%TD*%
%TA.AperFunction,Conductor*%
%TO.N,KB_DATA*%
G36*
X130709492Y-96467998D02*
G01*
X132032009Y-96941337D01*
X132038643Y-96947352D01*
X132039707Y-96951178D01*
X132063333Y-97185281D01*
X132060754Y-97193857D01*
X132057842Y-97196409D01*
X130710556Y-98028948D01*
X130701717Y-98030382D01*
X130694453Y-98025145D01*
X130694262Y-98024825D01*
X130252356Y-97255929D01*
X130251205Y-97247049D01*
X130252352Y-97244275D01*
X130695406Y-96473185D01*
X130702499Y-96467720D01*
X130709492Y-96467998D01*
G37*
%TD.AperFunction*%
%TD*%
%TA.AperFunction,Conductor*%
%TO.N,M_DATA*%
G36*
X131919505Y-106538068D02*
G01*
X131927440Y-106542218D01*
X131929588Y-106546100D01*
X132002426Y-106769818D01*
X132001729Y-106778745D01*
X131999753Y-106781530D01*
X130983561Y-107843183D01*
X130975365Y-107846790D01*
X130967656Y-107844112D01*
X130254138Y-107254513D01*
X130249944Y-107246602D01*
X130250017Y-107243780D01*
X130373382Y-106410923D01*
X130377984Y-106403241D01*
X130385997Y-106400983D01*
X131919505Y-106538068D01*
G37*
%TD.AperFunction*%
%TD*%
%TA.AperFunction,Conductor*%
%TO.N,M_DATA*%
G36*
X142604014Y-105817683D02*
G01*
X142604219Y-105818147D01*
X142693499Y-106032652D01*
X142777706Y-106234972D01*
X142809128Y-106310466D01*
X142809143Y-106319421D01*
X142809128Y-106319457D01*
X142604178Y-106811949D01*
X142597836Y-106818271D01*
X142588881Y-106818256D01*
X142588508Y-106818093D01*
X142481856Y-106769295D01*
X142481474Y-106769103D01*
X142426427Y-106738866D01*
X142385962Y-106716638D01*
X142385667Y-106716463D01*
X142306257Y-106666379D01*
X142237172Y-106619819D01*
X142172800Y-106578056D01*
X142107369Y-106542259D01*
X142107359Y-106542254D01*
X142107353Y-106542251D01*
X142035066Y-106513579D01*
X142035058Y-106513577D01*
X141950169Y-106493209D01*
X141950163Y-106493207D01*
X141950160Y-106493207D01*
X141950158Y-106493206D01*
X141950150Y-106493205D01*
X141846878Y-106482305D01*
X141846863Y-106482304D01*
X141846859Y-106482304D01*
X141843153Y-106482296D01*
X141730622Y-106482061D01*
X141722356Y-106478617D01*
X141718955Y-106470811D01*
X141710207Y-106243369D01*
X141713313Y-106234972D01*
X141720889Y-106231265D01*
X141842125Y-106220803D01*
X141947787Y-106198824D01*
X142033157Y-106167653D01*
X142104627Y-106128656D01*
X142146855Y-106098645D01*
X142168584Y-106083204D01*
X142231437Y-106032652D01*
X142299476Y-105978445D01*
X142299661Y-105978306D01*
X142379159Y-105921883D01*
X142379559Y-105921624D01*
X142476978Y-105864256D01*
X142477462Y-105864002D01*
X142549287Y-105830380D01*
X142588457Y-105812045D01*
X142597403Y-105811643D01*
X142604014Y-105817683D01*
G37*
%TD.AperFunction*%
%TD*%
%TA.AperFunction,Conductor*%
%TO.N,M_CLK*%
G36*
X131184576Y-94018163D02*
G01*
X131815991Y-94607913D01*
X131969048Y-94750871D01*
X132079078Y-94853640D01*
X132082785Y-94861791D01*
X132082731Y-94863386D01*
X132058437Y-95099785D01*
X132054182Y-95107665D01*
X132051868Y-95109133D01*
X131078193Y-95577352D01*
X131069252Y-95577849D01*
X131064803Y-95575034D01*
X130258167Y-94759164D01*
X130254787Y-94750871D01*
X130258261Y-94742618D01*
X130259186Y-94741796D01*
X131169307Y-94017557D01*
X131177912Y-94015088D01*
X131184576Y-94018163D01*
G37*
%TD.AperFunction*%
%TD*%
%TA.AperFunction,Conductor*%
%TO.N,M_CLK*%
G36*
X148964934Y-102697284D02*
G01*
X148970465Y-102703841D01*
X149006020Y-102809236D01*
X149006021Y-102809237D01*
X149046463Y-102900946D01*
X149046467Y-102900954D01*
X149089290Y-102973516D01*
X149089295Y-102973523D01*
X149135612Y-103032187D01*
X149162641Y-103058734D01*
X149186525Y-103082193D01*
X149186528Y-103082195D01*
X149186528Y-103082196D01*
X149243150Y-103128798D01*
X149306592Y-103177244D01*
X149377960Y-103232776D01*
X149458248Y-103300546D01*
X149458489Y-103300762D01*
X149540163Y-103377838D01*
X149543828Y-103386008D01*
X149540642Y-103394377D01*
X149540419Y-103394607D01*
X149163723Y-103772509D01*
X149155456Y-103775949D01*
X149155417Y-103775949D01*
X148622303Y-103775021D01*
X148614035Y-103771580D01*
X148610623Y-103763301D01*
X148610638Y-103762737D01*
X148617203Y-103636619D01*
X148617272Y-103635983D01*
X148636144Y-103521738D01*
X148636273Y-103521145D01*
X148662833Y-103424814D01*
X148662956Y-103424425D01*
X148693273Y-103340034D01*
X148723318Y-103261891D01*
X148748991Y-103184387D01*
X148766261Y-103101724D01*
X148771096Y-103008101D01*
X148759466Y-102897720D01*
X148729944Y-102775556D01*
X148731332Y-102766712D01*
X148737961Y-102761602D01*
X148956027Y-102696372D01*
X148964934Y-102697284D01*
G37*
%TD.AperFunction*%
%TD*%
%TA.AperFunction,Conductor*%
%TO.N,+5V*%
G36*
X143699378Y-103394371D02*
G01*
X143699792Y-103394764D01*
X144077502Y-103771255D01*
X144080942Y-103779523D01*
X144080942Y-103779562D01*
X144080021Y-104312545D01*
X144076580Y-104320812D01*
X144068301Y-104324225D01*
X144067571Y-104324201D01*
X143964101Y-104317553D01*
X143963303Y-104317446D01*
X143920189Y-104308603D01*
X143867940Y-104297887D01*
X143867206Y-104297686D01*
X143786980Y-104269987D01*
X143786466Y-104269782D01*
X143716258Y-104237830D01*
X143651324Y-104205666D01*
X143651316Y-104205662D01*
X143651309Y-104205659D01*
X143586982Y-104177431D01*
X143518391Y-104157193D01*
X143518390Y-104157192D01*
X143518384Y-104157191D01*
X143440649Y-104148990D01*
X143348873Y-104156873D01*
X143348863Y-104156875D01*
X143248801Y-104182197D01*
X143239940Y-104180905D01*
X143234800Y-104174459D01*
X143164589Y-103957579D01*
X143165301Y-103948655D01*
X143171515Y-103943059D01*
X143257847Y-103909822D01*
X143331054Y-103869259D01*
X143385955Y-103825032D01*
X143427709Y-103776823D01*
X143461475Y-103724316D01*
X143492418Y-103667181D01*
X143525638Y-103605208D01*
X143525751Y-103605011D01*
X143566327Y-103537992D01*
X143566590Y-103537598D01*
X143619691Y-103465123D01*
X143620059Y-103464672D01*
X143682853Y-103395204D01*
X143690942Y-103391366D01*
X143699378Y-103394371D01*
G37*
%TD.AperFunction*%
%TD*%
%TA.AperFunction,Conductor*%
%TO.N,+5V*%
G36*
X130710074Y-103969405D02*
G01*
X132068366Y-104621814D01*
X132074339Y-104628484D01*
X132075000Y-104632360D01*
X132075000Y-104867639D01*
X132071573Y-104875912D01*
X132068366Y-104878186D01*
X130710076Y-105530593D01*
X130701134Y-105531085D01*
X130694867Y-105525876D01*
X130252349Y-104755829D01*
X130251199Y-104746949D01*
X130252350Y-104744170D01*
X130316603Y-104632360D01*
X130694867Y-103974121D01*
X130701959Y-103968658D01*
X130710074Y-103969405D01*
G37*
%TD.AperFunction*%
%TD*%
M02*
