%TF.GenerationSoftware,KiCad,Pcbnew,7.0.9*%
%TF.CreationDate,2023-11-19T12:55:52-08:00*%
%TF.ProjectId,M13-SDL-Rev1,4d31332d-5344-44c2-9d52-6576312e6b69,1*%
%TF.SameCoordinates,Original*%
%TF.FileFunction,Legend,Bot*%
%TF.FilePolarity,Positive*%
%FSLAX46Y46*%
G04 Gerber Fmt 4.6, Leading zero omitted, Abs format (unit mm)*
G04 Created by KiCad (PCBNEW 7.0.9) date 2023-11-19 12:55:52*
%MOMM*%
%LPD*%
G01*
G04 APERTURE LIST*
%ADD10C,0.150000*%
%ADD11C,0.250000*%
%ADD12C,0.300000*%
G04 APERTURE END LIST*
D10*
X140263220Y-106869819D02*
X140263220Y-105869819D01*
X140263220Y-105869819D02*
X139929887Y-106584104D01*
X139929887Y-106584104D02*
X139596554Y-105869819D01*
X139596554Y-105869819D02*
X139596554Y-106869819D01*
X138596554Y-106869819D02*
X139167982Y-106869819D01*
X138882268Y-106869819D02*
X138882268Y-105869819D01*
X138882268Y-105869819D02*
X138977506Y-106012676D01*
X138977506Y-106012676D02*
X139072744Y-106107914D01*
X139072744Y-106107914D02*
X139167982Y-106155533D01*
X138263220Y-105869819D02*
X137644173Y-105869819D01*
X137644173Y-105869819D02*
X137977506Y-106250771D01*
X137977506Y-106250771D02*
X137834649Y-106250771D01*
X137834649Y-106250771D02*
X137739411Y-106298390D01*
X137739411Y-106298390D02*
X137691792Y-106346009D01*
X137691792Y-106346009D02*
X137644173Y-106441247D01*
X137644173Y-106441247D02*
X137644173Y-106679342D01*
X137644173Y-106679342D02*
X137691792Y-106774580D01*
X137691792Y-106774580D02*
X137739411Y-106822200D01*
X137739411Y-106822200D02*
X137834649Y-106869819D01*
X137834649Y-106869819D02*
X138120363Y-106869819D01*
X138120363Y-106869819D02*
X138215601Y-106822200D01*
X138215601Y-106822200D02*
X138263220Y-106774580D01*
X137215601Y-106488866D02*
X136453697Y-106488866D01*
X136025125Y-106822200D02*
X135882268Y-106869819D01*
X135882268Y-106869819D02*
X135644173Y-106869819D01*
X135644173Y-106869819D02*
X135548935Y-106822200D01*
X135548935Y-106822200D02*
X135501316Y-106774580D01*
X135501316Y-106774580D02*
X135453697Y-106679342D01*
X135453697Y-106679342D02*
X135453697Y-106584104D01*
X135453697Y-106584104D02*
X135501316Y-106488866D01*
X135501316Y-106488866D02*
X135548935Y-106441247D01*
X135548935Y-106441247D02*
X135644173Y-106393628D01*
X135644173Y-106393628D02*
X135834649Y-106346009D01*
X135834649Y-106346009D02*
X135929887Y-106298390D01*
X135929887Y-106298390D02*
X135977506Y-106250771D01*
X135977506Y-106250771D02*
X136025125Y-106155533D01*
X136025125Y-106155533D02*
X136025125Y-106060295D01*
X136025125Y-106060295D02*
X135977506Y-105965057D01*
X135977506Y-105965057D02*
X135929887Y-105917438D01*
X135929887Y-105917438D02*
X135834649Y-105869819D01*
X135834649Y-105869819D02*
X135596554Y-105869819D01*
X135596554Y-105869819D02*
X135453697Y-105917438D01*
X135025125Y-106869819D02*
X135025125Y-105869819D01*
X135025125Y-105869819D02*
X134787030Y-105869819D01*
X134787030Y-105869819D02*
X134644173Y-105917438D01*
X134644173Y-105917438D02*
X134548935Y-106012676D01*
X134548935Y-106012676D02*
X134501316Y-106107914D01*
X134501316Y-106107914D02*
X134453697Y-106298390D01*
X134453697Y-106298390D02*
X134453697Y-106441247D01*
X134453697Y-106441247D02*
X134501316Y-106631723D01*
X134501316Y-106631723D02*
X134548935Y-106726961D01*
X134548935Y-106726961D02*
X134644173Y-106822200D01*
X134644173Y-106822200D02*
X134787030Y-106869819D01*
X134787030Y-106869819D02*
X135025125Y-106869819D01*
X133548935Y-106869819D02*
X134025125Y-106869819D01*
X134025125Y-106869819D02*
X134025125Y-105869819D01*
D11*
X157797431Y-95004619D02*
X157797431Y-94004619D01*
X157368860Y-95004619D02*
X157368860Y-94480809D01*
X157368860Y-94480809D02*
X157416479Y-94385571D01*
X157416479Y-94385571D02*
X157511717Y-94337952D01*
X157511717Y-94337952D02*
X157654574Y-94337952D01*
X157654574Y-94337952D02*
X157749812Y-94385571D01*
X157749812Y-94385571D02*
X157797431Y-94433190D01*
X157035526Y-94337952D02*
X156654574Y-94337952D01*
X156892669Y-94004619D02*
X156892669Y-94861761D01*
X156892669Y-94861761D02*
X156845050Y-94957000D01*
X156845050Y-94957000D02*
X156749812Y-95004619D01*
X156749812Y-95004619D02*
X156654574Y-95004619D01*
X156464097Y-94337952D02*
X156083145Y-94337952D01*
X156321240Y-94004619D02*
X156321240Y-94861761D01*
X156321240Y-94861761D02*
X156273621Y-94957000D01*
X156273621Y-94957000D02*
X156178383Y-95004619D01*
X156178383Y-95004619D02*
X156083145Y-95004619D01*
X155749811Y-94337952D02*
X155749811Y-95337952D01*
X155749811Y-94385571D02*
X155654573Y-94337952D01*
X155654573Y-94337952D02*
X155464097Y-94337952D01*
X155464097Y-94337952D02*
X155368859Y-94385571D01*
X155368859Y-94385571D02*
X155321240Y-94433190D01*
X155321240Y-94433190D02*
X155273621Y-94528428D01*
X155273621Y-94528428D02*
X155273621Y-94814142D01*
X155273621Y-94814142D02*
X155321240Y-94909380D01*
X155321240Y-94909380D02*
X155368859Y-94957000D01*
X155368859Y-94957000D02*
X155464097Y-95004619D01*
X155464097Y-95004619D02*
X155654573Y-95004619D01*
X155654573Y-95004619D02*
X155749811Y-94957000D01*
X154892668Y-94957000D02*
X154797430Y-95004619D01*
X154797430Y-95004619D02*
X154606954Y-95004619D01*
X154606954Y-95004619D02*
X154511716Y-94957000D01*
X154511716Y-94957000D02*
X154464097Y-94861761D01*
X154464097Y-94861761D02*
X154464097Y-94814142D01*
X154464097Y-94814142D02*
X154511716Y-94718904D01*
X154511716Y-94718904D02*
X154606954Y-94671285D01*
X154606954Y-94671285D02*
X154749811Y-94671285D01*
X154749811Y-94671285D02*
X154845049Y-94623666D01*
X154845049Y-94623666D02*
X154892668Y-94528428D01*
X154892668Y-94528428D02*
X154892668Y-94480809D01*
X154892668Y-94480809D02*
X154845049Y-94385571D01*
X154845049Y-94385571D02*
X154749811Y-94337952D01*
X154749811Y-94337952D02*
X154606954Y-94337952D01*
X154606954Y-94337952D02*
X154511716Y-94385571D01*
X154035525Y-94909380D02*
X153987906Y-94957000D01*
X153987906Y-94957000D02*
X154035525Y-95004619D01*
X154035525Y-95004619D02*
X154083144Y-94957000D01*
X154083144Y-94957000D02*
X154035525Y-94909380D01*
X154035525Y-94909380D02*
X154035525Y-95004619D01*
X154035525Y-94385571D02*
X153987906Y-94433190D01*
X153987906Y-94433190D02*
X154035525Y-94480809D01*
X154035525Y-94480809D02*
X154083144Y-94433190D01*
X154083144Y-94433190D02*
X154035525Y-94385571D01*
X154035525Y-94385571D02*
X154035525Y-94480809D01*
X152845050Y-93957000D02*
X153702192Y-95242714D01*
X151797431Y-93957000D02*
X152654573Y-95242714D01*
X151035526Y-94337952D02*
X151035526Y-95147476D01*
X151035526Y-95147476D02*
X151083145Y-95242714D01*
X151083145Y-95242714D02*
X151130764Y-95290333D01*
X151130764Y-95290333D02*
X151226002Y-95337952D01*
X151226002Y-95337952D02*
X151368859Y-95337952D01*
X151368859Y-95337952D02*
X151464097Y-95290333D01*
X151035526Y-94957000D02*
X151130764Y-95004619D01*
X151130764Y-95004619D02*
X151321240Y-95004619D01*
X151321240Y-95004619D02*
X151416478Y-94957000D01*
X151416478Y-94957000D02*
X151464097Y-94909380D01*
X151464097Y-94909380D02*
X151511716Y-94814142D01*
X151511716Y-94814142D02*
X151511716Y-94528428D01*
X151511716Y-94528428D02*
X151464097Y-94433190D01*
X151464097Y-94433190D02*
X151416478Y-94385571D01*
X151416478Y-94385571D02*
X151321240Y-94337952D01*
X151321240Y-94337952D02*
X151130764Y-94337952D01*
X151130764Y-94337952D02*
X151035526Y-94385571D01*
X150559335Y-95004619D02*
X150559335Y-94337952D01*
X150559335Y-94004619D02*
X150606954Y-94052238D01*
X150606954Y-94052238D02*
X150559335Y-94099857D01*
X150559335Y-94099857D02*
X150511716Y-94052238D01*
X150511716Y-94052238D02*
X150559335Y-94004619D01*
X150559335Y-94004619D02*
X150559335Y-94099857D01*
X150226002Y-94337952D02*
X149845050Y-94337952D01*
X150083145Y-94004619D02*
X150083145Y-94861761D01*
X150083145Y-94861761D02*
X150035526Y-94957000D01*
X150035526Y-94957000D02*
X149940288Y-95004619D01*
X149940288Y-95004619D02*
X149845050Y-95004619D01*
X149511716Y-95004619D02*
X149511716Y-94004619D01*
X149083145Y-95004619D02*
X149083145Y-94480809D01*
X149083145Y-94480809D02*
X149130764Y-94385571D01*
X149130764Y-94385571D02*
X149226002Y-94337952D01*
X149226002Y-94337952D02*
X149368859Y-94337952D01*
X149368859Y-94337952D02*
X149464097Y-94385571D01*
X149464097Y-94385571D02*
X149511716Y-94433190D01*
X148178383Y-94337952D02*
X148178383Y-95004619D01*
X148606954Y-94337952D02*
X148606954Y-94861761D01*
X148606954Y-94861761D02*
X148559335Y-94957000D01*
X148559335Y-94957000D02*
X148464097Y-95004619D01*
X148464097Y-95004619D02*
X148321240Y-95004619D01*
X148321240Y-95004619D02*
X148226002Y-94957000D01*
X148226002Y-94957000D02*
X148178383Y-94909380D01*
X147702192Y-95004619D02*
X147702192Y-94004619D01*
X147702192Y-94385571D02*
X147606954Y-94337952D01*
X147606954Y-94337952D02*
X147416478Y-94337952D01*
X147416478Y-94337952D02*
X147321240Y-94385571D01*
X147321240Y-94385571D02*
X147273621Y-94433190D01*
X147273621Y-94433190D02*
X147226002Y-94528428D01*
X147226002Y-94528428D02*
X147226002Y-94814142D01*
X147226002Y-94814142D02*
X147273621Y-94909380D01*
X147273621Y-94909380D02*
X147321240Y-94957000D01*
X147321240Y-94957000D02*
X147416478Y-95004619D01*
X147416478Y-95004619D02*
X147606954Y-95004619D01*
X147606954Y-95004619D02*
X147702192Y-94957000D01*
X146797430Y-94909380D02*
X146749811Y-94957000D01*
X146749811Y-94957000D02*
X146797430Y-95004619D01*
X146797430Y-95004619D02*
X146845049Y-94957000D01*
X146845049Y-94957000D02*
X146797430Y-94909380D01*
X146797430Y-94909380D02*
X146797430Y-95004619D01*
X145892669Y-94957000D02*
X145987907Y-95004619D01*
X145987907Y-95004619D02*
X146178383Y-95004619D01*
X146178383Y-95004619D02*
X146273621Y-94957000D01*
X146273621Y-94957000D02*
X146321240Y-94909380D01*
X146321240Y-94909380D02*
X146368859Y-94814142D01*
X146368859Y-94814142D02*
X146368859Y-94528428D01*
X146368859Y-94528428D02*
X146321240Y-94433190D01*
X146321240Y-94433190D02*
X146273621Y-94385571D01*
X146273621Y-94385571D02*
X146178383Y-94337952D01*
X146178383Y-94337952D02*
X145987907Y-94337952D01*
X145987907Y-94337952D02*
X145892669Y-94385571D01*
X145321240Y-95004619D02*
X145416478Y-94957000D01*
X145416478Y-94957000D02*
X145464097Y-94909380D01*
X145464097Y-94909380D02*
X145511716Y-94814142D01*
X145511716Y-94814142D02*
X145511716Y-94528428D01*
X145511716Y-94528428D02*
X145464097Y-94433190D01*
X145464097Y-94433190D02*
X145416478Y-94385571D01*
X145416478Y-94385571D02*
X145321240Y-94337952D01*
X145321240Y-94337952D02*
X145178383Y-94337952D01*
X145178383Y-94337952D02*
X145083145Y-94385571D01*
X145083145Y-94385571D02*
X145035526Y-94433190D01*
X145035526Y-94433190D02*
X144987907Y-94528428D01*
X144987907Y-94528428D02*
X144987907Y-94814142D01*
X144987907Y-94814142D02*
X145035526Y-94909380D01*
X145035526Y-94909380D02*
X145083145Y-94957000D01*
X145083145Y-94957000D02*
X145178383Y-95004619D01*
X145178383Y-95004619D02*
X145321240Y-95004619D01*
X144559335Y-95004619D02*
X144559335Y-94337952D01*
X144559335Y-94433190D02*
X144511716Y-94385571D01*
X144511716Y-94385571D02*
X144416478Y-94337952D01*
X144416478Y-94337952D02*
X144273621Y-94337952D01*
X144273621Y-94337952D02*
X144178383Y-94385571D01*
X144178383Y-94385571D02*
X144130764Y-94480809D01*
X144130764Y-94480809D02*
X144130764Y-95004619D01*
X144130764Y-94480809D02*
X144083145Y-94385571D01*
X144083145Y-94385571D02*
X143987907Y-94337952D01*
X143987907Y-94337952D02*
X143845050Y-94337952D01*
X143845050Y-94337952D02*
X143749811Y-94385571D01*
X143749811Y-94385571D02*
X143702192Y-94480809D01*
X143702192Y-94480809D02*
X143702192Y-95004619D01*
X142511717Y-93957000D02*
X143368859Y-95242714D01*
X142178383Y-94480809D02*
X141845050Y-94480809D01*
X141702193Y-95004619D02*
X142178383Y-95004619D01*
X142178383Y-95004619D02*
X142178383Y-94004619D01*
X142178383Y-94004619D02*
X141702193Y-94004619D01*
X141368859Y-95004619D02*
X140845050Y-94337952D01*
X141368859Y-94337952D02*
X140845050Y-95004619D01*
X140464097Y-94337952D02*
X140464097Y-95337952D01*
X140464097Y-94385571D02*
X140368859Y-94337952D01*
X140368859Y-94337952D02*
X140178383Y-94337952D01*
X140178383Y-94337952D02*
X140083145Y-94385571D01*
X140083145Y-94385571D02*
X140035526Y-94433190D01*
X140035526Y-94433190D02*
X139987907Y-94528428D01*
X139987907Y-94528428D02*
X139987907Y-94814142D01*
X139987907Y-94814142D02*
X140035526Y-94909380D01*
X140035526Y-94909380D02*
X140083145Y-94957000D01*
X140083145Y-94957000D02*
X140178383Y-95004619D01*
X140178383Y-95004619D02*
X140368859Y-95004619D01*
X140368859Y-95004619D02*
X140464097Y-94957000D01*
X139416478Y-95004619D02*
X139511716Y-94957000D01*
X139511716Y-94957000D02*
X139559335Y-94909380D01*
X139559335Y-94909380D02*
X139606954Y-94814142D01*
X139606954Y-94814142D02*
X139606954Y-94528428D01*
X139606954Y-94528428D02*
X139559335Y-94433190D01*
X139559335Y-94433190D02*
X139511716Y-94385571D01*
X139511716Y-94385571D02*
X139416478Y-94337952D01*
X139416478Y-94337952D02*
X139273621Y-94337952D01*
X139273621Y-94337952D02*
X139178383Y-94385571D01*
X139178383Y-94385571D02*
X139130764Y-94433190D01*
X139130764Y-94433190D02*
X139083145Y-94528428D01*
X139083145Y-94528428D02*
X139083145Y-94814142D01*
X139083145Y-94814142D02*
X139130764Y-94909380D01*
X139130764Y-94909380D02*
X139178383Y-94957000D01*
X139178383Y-94957000D02*
X139273621Y-95004619D01*
X139273621Y-95004619D02*
X139416478Y-95004619D01*
X138702192Y-94957000D02*
X138606954Y-95004619D01*
X138606954Y-95004619D02*
X138416478Y-95004619D01*
X138416478Y-95004619D02*
X138321240Y-94957000D01*
X138321240Y-94957000D02*
X138273621Y-94861761D01*
X138273621Y-94861761D02*
X138273621Y-94814142D01*
X138273621Y-94814142D02*
X138321240Y-94718904D01*
X138321240Y-94718904D02*
X138416478Y-94671285D01*
X138416478Y-94671285D02*
X138559335Y-94671285D01*
X138559335Y-94671285D02*
X138654573Y-94623666D01*
X138654573Y-94623666D02*
X138702192Y-94528428D01*
X138702192Y-94528428D02*
X138702192Y-94480809D01*
X138702192Y-94480809D02*
X138654573Y-94385571D01*
X138654573Y-94385571D02*
X138559335Y-94337952D01*
X138559335Y-94337952D02*
X138416478Y-94337952D01*
X138416478Y-94337952D02*
X138321240Y-94385571D01*
X137416478Y-94337952D02*
X137416478Y-95004619D01*
X137845049Y-94337952D02*
X137845049Y-94861761D01*
X137845049Y-94861761D02*
X137797430Y-94957000D01*
X137797430Y-94957000D02*
X137702192Y-95004619D01*
X137702192Y-95004619D02*
X137559335Y-95004619D01*
X137559335Y-95004619D02*
X137464097Y-94957000D01*
X137464097Y-94957000D02*
X137416478Y-94909380D01*
X136940287Y-95004619D02*
X136940287Y-94337952D01*
X136940287Y-94528428D02*
X136892668Y-94433190D01*
X136892668Y-94433190D02*
X136845049Y-94385571D01*
X136845049Y-94385571D02*
X136749811Y-94337952D01*
X136749811Y-94337952D02*
X136654573Y-94337952D01*
X135940287Y-94957000D02*
X136035525Y-95004619D01*
X136035525Y-95004619D02*
X136226001Y-95004619D01*
X136226001Y-95004619D02*
X136321239Y-94957000D01*
X136321239Y-94957000D02*
X136368858Y-94861761D01*
X136368858Y-94861761D02*
X136368858Y-94480809D01*
X136368858Y-94480809D02*
X136321239Y-94385571D01*
X136321239Y-94385571D02*
X136226001Y-94337952D01*
X136226001Y-94337952D02*
X136035525Y-94337952D01*
X136035525Y-94337952D02*
X135940287Y-94385571D01*
X135940287Y-94385571D02*
X135892668Y-94480809D01*
X135892668Y-94480809D02*
X135892668Y-94576047D01*
X135892668Y-94576047D02*
X136368858Y-94671285D01*
X134987906Y-95004619D02*
X135464096Y-95004619D01*
X135464096Y-95004619D02*
X135464096Y-94004619D01*
X134226001Y-95004619D02*
X134226001Y-94480809D01*
X134226001Y-94480809D02*
X134273620Y-94385571D01*
X134273620Y-94385571D02*
X134368858Y-94337952D01*
X134368858Y-94337952D02*
X134559334Y-94337952D01*
X134559334Y-94337952D02*
X134654572Y-94385571D01*
X134226001Y-94957000D02*
X134321239Y-95004619D01*
X134321239Y-95004619D02*
X134559334Y-95004619D01*
X134559334Y-95004619D02*
X134654572Y-94957000D01*
X134654572Y-94957000D02*
X134702191Y-94861761D01*
X134702191Y-94861761D02*
X134702191Y-94766523D01*
X134702191Y-94766523D02*
X134654572Y-94671285D01*
X134654572Y-94671285D02*
X134559334Y-94623666D01*
X134559334Y-94623666D02*
X134321239Y-94623666D01*
X134321239Y-94623666D02*
X134226001Y-94576047D01*
X133749810Y-95004619D02*
X133749810Y-94004619D01*
X133749810Y-94385571D02*
X133654572Y-94337952D01*
X133654572Y-94337952D02*
X133464096Y-94337952D01*
X133464096Y-94337952D02*
X133368858Y-94385571D01*
X133368858Y-94385571D02*
X133321239Y-94433190D01*
X133321239Y-94433190D02*
X133273620Y-94528428D01*
X133273620Y-94528428D02*
X133273620Y-94814142D01*
X133273620Y-94814142D02*
X133321239Y-94909380D01*
X133321239Y-94909380D02*
X133368858Y-94957000D01*
X133368858Y-94957000D02*
X133464096Y-95004619D01*
X133464096Y-95004619D02*
X133654572Y-95004619D01*
X133654572Y-95004619D02*
X133749810Y-94957000D01*
X132892667Y-94957000D02*
X132797429Y-95004619D01*
X132797429Y-95004619D02*
X132606953Y-95004619D01*
X132606953Y-95004619D02*
X132511715Y-94957000D01*
X132511715Y-94957000D02*
X132464096Y-94861761D01*
X132464096Y-94861761D02*
X132464096Y-94814142D01*
X132464096Y-94814142D02*
X132511715Y-94718904D01*
X132511715Y-94718904D02*
X132606953Y-94671285D01*
X132606953Y-94671285D02*
X132749810Y-94671285D01*
X132749810Y-94671285D02*
X132845048Y-94623666D01*
X132845048Y-94623666D02*
X132892667Y-94528428D01*
X132892667Y-94528428D02*
X132892667Y-94480809D01*
X132892667Y-94480809D02*
X132845048Y-94385571D01*
X132845048Y-94385571D02*
X132749810Y-94337952D01*
X132749810Y-94337952D02*
X132606953Y-94337952D01*
X132606953Y-94337952D02*
X132511715Y-94385571D01*
X157083146Y-95567000D02*
X157940288Y-96852714D01*
X156749812Y-96614619D02*
X156749812Y-95614619D01*
X156749812Y-95614619D02*
X156416479Y-96328904D01*
X156416479Y-96328904D02*
X156083146Y-95614619D01*
X156083146Y-95614619D02*
X156083146Y-96614619D01*
X155083146Y-96614619D02*
X155654574Y-96614619D01*
X155368860Y-96614619D02*
X155368860Y-95614619D01*
X155368860Y-95614619D02*
X155464098Y-95757476D01*
X155464098Y-95757476D02*
X155559336Y-95852714D01*
X155559336Y-95852714D02*
X155654574Y-95900333D01*
X154749812Y-95614619D02*
X154130765Y-95614619D01*
X154130765Y-95614619D02*
X154464098Y-95995571D01*
X154464098Y-95995571D02*
X154321241Y-95995571D01*
X154321241Y-95995571D02*
X154226003Y-96043190D01*
X154226003Y-96043190D02*
X154178384Y-96090809D01*
X154178384Y-96090809D02*
X154130765Y-96186047D01*
X154130765Y-96186047D02*
X154130765Y-96424142D01*
X154130765Y-96424142D02*
X154178384Y-96519380D01*
X154178384Y-96519380D02*
X154226003Y-96567000D01*
X154226003Y-96567000D02*
X154321241Y-96614619D01*
X154321241Y-96614619D02*
X154606955Y-96614619D01*
X154606955Y-96614619D02*
X154702193Y-96567000D01*
X154702193Y-96567000D02*
X154749812Y-96519380D01*
X153702193Y-96233666D02*
X152940289Y-96233666D01*
X152511717Y-96567000D02*
X152368860Y-96614619D01*
X152368860Y-96614619D02*
X152130765Y-96614619D01*
X152130765Y-96614619D02*
X152035527Y-96567000D01*
X152035527Y-96567000D02*
X151987908Y-96519380D01*
X151987908Y-96519380D02*
X151940289Y-96424142D01*
X151940289Y-96424142D02*
X151940289Y-96328904D01*
X151940289Y-96328904D02*
X151987908Y-96233666D01*
X151987908Y-96233666D02*
X152035527Y-96186047D01*
X152035527Y-96186047D02*
X152130765Y-96138428D01*
X152130765Y-96138428D02*
X152321241Y-96090809D01*
X152321241Y-96090809D02*
X152416479Y-96043190D01*
X152416479Y-96043190D02*
X152464098Y-95995571D01*
X152464098Y-95995571D02*
X152511717Y-95900333D01*
X152511717Y-95900333D02*
X152511717Y-95805095D01*
X152511717Y-95805095D02*
X152464098Y-95709857D01*
X152464098Y-95709857D02*
X152416479Y-95662238D01*
X152416479Y-95662238D02*
X152321241Y-95614619D01*
X152321241Y-95614619D02*
X152083146Y-95614619D01*
X152083146Y-95614619D02*
X151940289Y-95662238D01*
X151511717Y-96614619D02*
X151511717Y-95614619D01*
X151511717Y-95614619D02*
X151273622Y-95614619D01*
X151273622Y-95614619D02*
X151130765Y-95662238D01*
X151130765Y-95662238D02*
X151035527Y-95757476D01*
X151035527Y-95757476D02*
X150987908Y-95852714D01*
X150987908Y-95852714D02*
X150940289Y-96043190D01*
X150940289Y-96043190D02*
X150940289Y-96186047D01*
X150940289Y-96186047D02*
X150987908Y-96376523D01*
X150987908Y-96376523D02*
X151035527Y-96471761D01*
X151035527Y-96471761D02*
X151130765Y-96567000D01*
X151130765Y-96567000D02*
X151273622Y-96614619D01*
X151273622Y-96614619D02*
X151511717Y-96614619D01*
X150035527Y-96614619D02*
X150511717Y-96614619D01*
X150511717Y-96614619D02*
X150511717Y-95614619D01*
D12*
G36*
X155793859Y-107260000D02*
G01*
X155793859Y-105227899D01*
X155387438Y-105227899D01*
X155387438Y-106040739D01*
X154590230Y-106040739D01*
X154590230Y-105227899D01*
X154183810Y-105227899D01*
X154183810Y-107260000D01*
X154590230Y-107260000D01*
X154590230Y-106384633D01*
X155387438Y-106384633D01*
X155387438Y-107260000D01*
X155793859Y-107260000D01*
G37*
G36*
X153777878Y-105571793D02*
G01*
X153777878Y-105227899D01*
X153391486Y-105227899D01*
X153391486Y-105571793D01*
X153777878Y-105571793D01*
G37*
G36*
X153777878Y-107260000D02*
G01*
X153777878Y-105790635D01*
X153391486Y-105790635D01*
X153391486Y-107260000D01*
X153777878Y-107260000D01*
G37*
G36*
X152307536Y-106134528D02*
G01*
X152307536Y-105790635D01*
X150899232Y-105790635D01*
X150899232Y-106134528D01*
X152307536Y-106134528D01*
G37*
G36*
X152307536Y-106728527D02*
G01*
X152307536Y-106384633D01*
X150899232Y-106384633D01*
X150899232Y-106728527D01*
X152307536Y-106728527D01*
G37*
G36*
X150684787Y-106683098D02*
G01*
X150311095Y-106634738D01*
X150307178Y-106662596D01*
X150302205Y-106689200D01*
X150296176Y-106714551D01*
X150289090Y-106738648D01*
X150280949Y-106761491D01*
X150271751Y-106783081D01*
X150261497Y-106803417D01*
X150250187Y-106822500D01*
X150237821Y-106840328D01*
X150224398Y-106856903D01*
X150214863Y-106867257D01*
X150199917Y-106881574D01*
X150184386Y-106894482D01*
X150168272Y-106905983D01*
X150145878Y-106919126D01*
X150122446Y-106929766D01*
X150097976Y-106937902D01*
X150078942Y-106942362D01*
X150059325Y-106945413D01*
X150039123Y-106947056D01*
X150025331Y-106947369D01*
X150003313Y-106946566D01*
X149981957Y-106944157D01*
X149961262Y-106940143D01*
X149941227Y-106934523D01*
X149921855Y-106927297D01*
X149903143Y-106918466D01*
X149885092Y-106908029D01*
X149867703Y-106895986D01*
X149850974Y-106882338D01*
X149834907Y-106867083D01*
X149824563Y-106856022D01*
X149809897Y-106838332D01*
X149796674Y-106819517D01*
X149784893Y-106799577D01*
X149774555Y-106778513D01*
X149765659Y-106756324D01*
X149758206Y-106733009D01*
X149752195Y-106708570D01*
X149747627Y-106683006D01*
X149744501Y-106656318D01*
X149742818Y-106628504D01*
X149742498Y-106609337D01*
X149743189Y-106582392D01*
X149745263Y-106556511D01*
X149748719Y-106531696D01*
X149753557Y-106507945D01*
X149759778Y-106485259D01*
X149767382Y-106463638D01*
X149776368Y-106443082D01*
X149786736Y-106423590D01*
X149798487Y-106405163D01*
X149811620Y-106387801D01*
X149821144Y-106376817D01*
X149836099Y-106361453D01*
X149851655Y-106347600D01*
X149867812Y-106335258D01*
X149884571Y-106324427D01*
X149901930Y-106315108D01*
X149919891Y-106307300D01*
X149938452Y-106301003D01*
X149957615Y-106296217D01*
X149977378Y-106292943D01*
X149997743Y-106291180D01*
X150011653Y-106290844D01*
X150035560Y-106291548D01*
X150055699Y-106293124D01*
X150076738Y-106295600D01*
X150098678Y-106298978D01*
X150121518Y-106303256D01*
X150145259Y-106308435D01*
X150169901Y-106314514D01*
X150188974Y-106319665D01*
X150146475Y-106009476D01*
X150117732Y-106009599D01*
X150090301Y-106008503D01*
X150064185Y-106006187D01*
X150039383Y-106002653D01*
X150015894Y-105997898D01*
X149993719Y-105991925D01*
X149972857Y-105984732D01*
X149953310Y-105976320D01*
X149935076Y-105966689D01*
X149918156Y-105955838D01*
X149907606Y-105947927D01*
X149888257Y-105930891D01*
X149871489Y-105912512D01*
X149857300Y-105892789D01*
X149845690Y-105871723D01*
X149836661Y-105849314D01*
X149830211Y-105825561D01*
X149826342Y-105800465D01*
X149825132Y-105780762D01*
X149825052Y-105774026D01*
X149825998Y-105751533D01*
X149828838Y-105730215D01*
X149833570Y-105710073D01*
X149840195Y-105691106D01*
X149848713Y-105673314D01*
X149859124Y-105656698D01*
X149871427Y-105641257D01*
X149885624Y-105626992D01*
X149901279Y-105614055D01*
X149918200Y-105602842D01*
X149936388Y-105593355D01*
X149955844Y-105585593D01*
X149976566Y-105579555D01*
X149998556Y-105575243D01*
X150021812Y-105572655D01*
X150046336Y-105571793D01*
X150070562Y-105572793D01*
X150093902Y-105575792D01*
X150116357Y-105580792D01*
X150137927Y-105587791D01*
X150158611Y-105596790D01*
X150178410Y-105607788D01*
X150197324Y-105620787D01*
X150215352Y-105635785D01*
X150231960Y-105652584D01*
X150246859Y-105671230D01*
X150260048Y-105691724D01*
X150271528Y-105714064D01*
X150281297Y-105738252D01*
X150287503Y-105757605D01*
X150292746Y-105777997D01*
X150297028Y-105799428D01*
X150300348Y-105821898D01*
X150655966Y-105765722D01*
X150651178Y-105742690D01*
X150646097Y-105720247D01*
X150640722Y-105698391D01*
X150635053Y-105677123D01*
X150629090Y-105656442D01*
X150622833Y-105636349D01*
X150616282Y-105616844D01*
X150609438Y-105597927D01*
X150602299Y-105579597D01*
X150591041Y-105553205D01*
X150579121Y-105528135D01*
X150566540Y-105504387D01*
X150553298Y-105481961D01*
X150544103Y-105467745D01*
X150529570Y-105447192D01*
X150513998Y-105427480D01*
X150497387Y-105408609D01*
X150479737Y-105390580D01*
X150461048Y-105373392D01*
X150441320Y-105357046D01*
X150420554Y-105341542D01*
X150398748Y-105326878D01*
X150375903Y-105313057D01*
X150352019Y-105300077D01*
X150335519Y-105291891D01*
X150310053Y-105280455D01*
X150284028Y-105270143D01*
X150257445Y-105260957D01*
X150230304Y-105252896D01*
X150202605Y-105245959D01*
X150174348Y-105240147D01*
X150145532Y-105235461D01*
X150126012Y-105232961D01*
X150106244Y-105230961D01*
X150086227Y-105229461D01*
X150065963Y-105228461D01*
X150045450Y-105227962D01*
X150035101Y-105227899D01*
X150000004Y-105228592D01*
X149965789Y-105230670D01*
X149932456Y-105234133D01*
X149900004Y-105238982D01*
X149868434Y-105245215D01*
X149837745Y-105252835D01*
X149807938Y-105261839D01*
X149779012Y-105272229D01*
X149750968Y-105284004D01*
X149723806Y-105297165D01*
X149697525Y-105311711D01*
X149672125Y-105327642D01*
X149647608Y-105344958D01*
X149623971Y-105363660D01*
X149601217Y-105383747D01*
X149579344Y-105405219D01*
X149562189Y-105423503D01*
X149546142Y-105442085D01*
X149531201Y-105460964D01*
X149517367Y-105480141D01*
X149504640Y-105499615D01*
X149493019Y-105519388D01*
X149482505Y-105539457D01*
X149473098Y-105559825D01*
X149464797Y-105580490D01*
X149457604Y-105601453D01*
X149451517Y-105622714D01*
X149446536Y-105644272D01*
X149442663Y-105666128D01*
X149439896Y-105688282D01*
X149438236Y-105710733D01*
X149437683Y-105733482D01*
X149438814Y-105765495D01*
X149442209Y-105796687D01*
X149447866Y-105827059D01*
X149455787Y-105856611D01*
X149465971Y-105885342D01*
X149478418Y-105913252D01*
X149493128Y-105940342D01*
X149510101Y-105966612D01*
X149529337Y-105992060D01*
X149550836Y-106016689D01*
X149574598Y-106040497D01*
X149600623Y-106063484D01*
X149628911Y-106085651D01*
X149659463Y-106106998D01*
X149692277Y-106127524D01*
X149709533Y-106137479D01*
X149727355Y-106147229D01*
X149706010Y-106152360D01*
X149685208Y-106158228D01*
X149664947Y-106164832D01*
X149645228Y-106172172D01*
X149626051Y-106180250D01*
X149607416Y-106189063D01*
X149589323Y-106198614D01*
X149571772Y-106208900D01*
X149554763Y-106219924D01*
X149538295Y-106231684D01*
X149522370Y-106244180D01*
X149506987Y-106257413D01*
X149492145Y-106271383D01*
X149477845Y-106286089D01*
X149464088Y-106301531D01*
X149450872Y-106317711D01*
X149438272Y-106334413D01*
X149426486Y-106351546D01*
X149415512Y-106369110D01*
X149405351Y-106387106D01*
X149396003Y-106405533D01*
X149387468Y-106424391D01*
X149379746Y-106443681D01*
X149372836Y-106463401D01*
X149366740Y-106483553D01*
X149361456Y-106504137D01*
X149356985Y-106525151D01*
X149353327Y-106546597D01*
X149350482Y-106568474D01*
X149348450Y-106590782D01*
X149347231Y-106613521D01*
X149346824Y-106636692D01*
X149347582Y-106670329D01*
X149349854Y-106703340D01*
X149353642Y-106735725D01*
X149358945Y-106767484D01*
X149365763Y-106798617D01*
X149374096Y-106829125D01*
X149383944Y-106859006D01*
X149395307Y-106888262D01*
X149408185Y-106916892D01*
X149422578Y-106944896D01*
X149438486Y-106972274D01*
X149455909Y-106999026D01*
X149474848Y-107025152D01*
X149495301Y-107050653D01*
X149517270Y-107075527D01*
X149540753Y-107099776D01*
X149565305Y-107122964D01*
X149590602Y-107144656D01*
X149616642Y-107164852D01*
X149643427Y-107183551D01*
X149670956Y-107200755D01*
X149699229Y-107216463D01*
X149728246Y-107230675D01*
X149758007Y-107243391D01*
X149788513Y-107254611D01*
X149819762Y-107264335D01*
X149851756Y-107272563D01*
X149884494Y-107279295D01*
X149917977Y-107284531D01*
X149952203Y-107288271D01*
X149987174Y-107290515D01*
X150022889Y-107291263D01*
X150056659Y-107290606D01*
X150089704Y-107288637D01*
X150122024Y-107285355D01*
X150153620Y-107280760D01*
X150184490Y-107274853D01*
X150214634Y-107267632D01*
X150244054Y-107259099D01*
X150272749Y-107249253D01*
X150300719Y-107238094D01*
X150327963Y-107225622D01*
X150354483Y-107211838D01*
X150380277Y-107196741D01*
X150405346Y-107180331D01*
X150429690Y-107162608D01*
X150453309Y-107143572D01*
X150476203Y-107123224D01*
X150498084Y-107101755D01*
X150518785Y-107079481D01*
X150538308Y-107056402D01*
X150556651Y-107032518D01*
X150573815Y-107007828D01*
X150589799Y-106982334D01*
X150604604Y-106956034D01*
X150618230Y-106928928D01*
X150630677Y-106901018D01*
X150641945Y-106872302D01*
X150652033Y-106842781D01*
X150660942Y-106812455D01*
X150668672Y-106781324D01*
X150675223Y-106749387D01*
X150680594Y-106716645D01*
X150684787Y-106683098D01*
G37*
M02*
